<svg width="22" height="22" viewBox="0 0 22 22" fill="none" xmlns="http://www.w3.org/2000/svg">
<path d="M8.25 15.5835H13.75M15.5833 19.2502H6.41667C5.44421 19.2502 4.51158 18.8638 3.82394 18.1762C3.13631 17.4886 2.75 16.556 2.75 15.5835V9.81583C2.74999 9.18536 2.91254 8.56553 3.22196 8.01622C3.53138 7.4669 3.97722 7.00665 4.51642 6.67991L9.09975 3.90241C9.67277 3.55517 10.33 3.37158 11 3.37158C11.67 3.37158 12.3272 3.55517 12.9003 3.90241L17.4836 6.67991C18.0226 7.00657 18.4684 7.46668 18.7778 8.01582C19.0872 8.56496 19.2499 9.18459 19.25 9.81491V15.5835C19.25 16.556 18.8637 17.4886 18.1761 18.1762C17.4884 18.8638 16.5558 19.2502 15.5833 19.2502Z" stroke="#E224FF" stroke-width="2" stroke-linecap="round" stroke-linejoin="round"/>
</svg>
