<svg width="15" height="19" viewBox="0 0 15 19" fill="none" xmlns="http://www.w3.org/2000/svg">
<path d="M8.67529 18.8056C11.4335 18.1939 15 15.9966 15 10.3151C15 5.14555 11.5826 1.70246 9.12529 0.120629C8.57912 -0.231105 7.94118 0.231035 7.94118 0.92962V2.71565C7.94118 4.12455 7.40647 6.69612 5.92059 7.76598C5.16176 8.31214 4.34118 7.49436 4.24941 6.49778L4.17353 5.67902C4.08529 4.72738 3.21 4.14995 2.52353 4.73031C1.28912 5.77086 0 7.59793 0 10.3141C0 17.2618 4.66676 19 6.99971 19C7.13618 19 7.27853 18.9951 7.42676 18.9853C6.27441 18.8769 4.41176 18.0855 4.41176 15.5256C4.41176 13.5227 5.73088 12.1695 6.73323 11.51C7.00323 11.3341 7.31823 11.5637 7.31823 11.9106V12.487C7.31823 12.9267 7.47265 13.6155 7.83882 14.0865C8.25353 14.6199 8.86147 14.0611 8.91 13.3595C8.92588 13.1387 9.12706 12.998 9.3 13.1094C9.86559 13.4758 10.5882 14.2574 10.5882 15.5256C10.5882 17.5266 9.59206 18.447 8.67529 18.8056Z" fill="#FFA136"/>
</svg>
