<svg width="29" height="30" viewBox="0 0 29 30" fill="none" xmlns="http://www.w3.org/2000/svg">
<g clip-path="url(#clip0_2085_5)">
<g filter="url(#filter0_d_2085_5)">
<rect width="29" height="29.4328" rx="14.5" fill="#282228" shape-rendering="crispEdges"/>
<rect x="0.216418" y="0.216418" width="28.5672" height="29" rx="14.2836" stroke="url(#paint0_linear_2085_5)" stroke-width="0.432836" shape-rendering="crispEdges"/>
<path d="M21.5837 14.7161C21.5837 10.8061 18.4103 7.63281 14.5003 7.63281C10.5903 7.63281 7.41699 10.8061 7.41699 14.7161C7.41699 18.1445 9.85366 20.9991 13.0837 21.6578V16.8411H11.667V14.7161H13.0837V12.9453C13.0837 11.5782 14.1957 10.4661 15.5628 10.4661H17.3337V12.5911H15.917C15.5274 12.5911 15.2087 12.9099 15.2087 13.2995V14.7161H17.3337V16.8411H15.2087V21.7641C18.7857 21.4099 21.5837 18.3924 21.5837 14.7161Z" fill="#E6E6E6"/>
</g>
</g>
<defs>
<filter id="filter0_d_2085_5" x="-76.9582" y="-76.9582" width="182.916" height="183.349" filterUnits="userSpaceOnUse" color-interpolation-filters="sRGB">
<feFlood flood-opacity="0" result="BackgroundImageFix"/>
<feColorMatrix in="SourceAlpha" type="matrix" values="0 0 0 0 0 0 0 0 0 0 0 0 0 0 0 0 0 0 127 0" result="hardAlpha"/>
<feOffset dy="1.73134"/>
<feGaussianBlur stdDeviation="2.07761"/>
<feComposite in2="hardAlpha" operator="out"/>
<feColorMatrix type="matrix" values="0 0 0 0 0 0 0 0 0 0 0 0 0 0 0 0 0 0 1 0"/>
<feBlend mode="normal" in2="BackgroundImageFix" result="effect1_dropShadow_2085_5"/>
<feBlend mode="normal" in="SourceGraphic" in2="effect1_dropShadow_2085_5" result="shape"/>
</filter>
<linearGradient id="paint0_linear_2085_5" x1="-27.4409" y1="-22.6002" x2="23.5938" y2="41.7565" gradientUnits="userSpaceOnUse">
<stop stop-color="#8C708B" stop-opacity="0.84"/>
<stop offset="1"/>
</linearGradient>
<clipPath id="clip0_2085_5">
<rect width="29" height="29.4328" fill="white"/>
</clipPath>
</defs>
</svg>
