<svg width="25" height="20" viewBox="0 0 25 20" fill="none" xmlns="http://www.w3.org/2000/svg">
<g clip-path="url(#clip0_114_4210)">
<path d="M8.075 10C10.3963 10 12.275 8.04297 12.275 5.625C12.275 3.20703 10.3963 1.25 8.075 1.25C5.75375 1.25 3.875 3.20703 3.875 5.625C3.875 8.04297 5.75375 10 8.075 10ZM10.955 11.25H10.6438C9.86375 11.6406 8.9975 11.875 8.075 11.875C7.1525 11.875 6.29 11.6406 5.50625 11.25H5.195C2.81 11.25 0.875 13.2656 0.875 15.75V16.875C0.875 17.9102 1.68125 18.75 2.675 18.75H13.475C14.4688 18.75 15.275 17.9102 15.275 16.875V15.75C15.275 13.2656 13.34 11.25 10.955 11.25ZM18.875 10C20.8625 10 22.475 8.32031 22.475 6.25C22.475 4.17969 20.8625 2.5 18.875 2.5C16.8875 2.5 15.275 4.17969 15.275 6.25C15.275 8.32031 16.8875 10 18.875 10ZM20.675 11.25H20.5325C20.0113 11.4375 19.46 11.5625 18.875 11.5625C18.29 11.5625 17.7388 11.4375 17.2175 11.25H17.075C16.31 11.25 15.605 11.4805 14.9862 11.8516C15.9012 12.8789 16.475 14.2422 16.475 15.75V17.25C16.475 17.3359 16.4563 17.418 16.4525 17.5H23.075C24.0688 17.5 24.875 16.6602 24.875 15.625C24.875 13.207 22.9963 11.25 20.675 11.25Z" fill="#767676"/>
</g>
<defs>
<clipPath id="clip0_114_4210">
<rect width="24" height="20" fill="white" transform="translate(0.875)"/>
</clipPath>
</defs>
</svg>
