<svg width="29" height="30" viewBox="0 0 29 30" fill="none" xmlns="http://www.w3.org/2000/svg">
<g clip-path="url(#clip0_2085_9)">
<g filter="url(#filter0_d_2085_9)">
<rect width="29" height="29.4328" rx="14.5" fill="#282228" shape-rendering="crispEdges"/>
<rect x="0.216418" y="0.216418" width="28.5672" height="29" rx="14.2836" stroke="url(#paint0_linear_2085_9)" stroke-width="0.432836" shape-rendering="crispEdges"/>
<path d="M19.4583 8.34131C19.8341 8.34131 20.1944 8.49056 20.4601 8.75624C20.7257 9.02192 20.875 9.38225 20.875 9.75798V19.6746C20.875 20.0504 20.7257 20.4107 20.4601 20.6764C20.1944 20.9421 19.8341 21.0913 19.4583 21.0913H9.54167C9.16594 21.0913 8.80561 20.9421 8.53993 20.6764C8.27426 20.4107 8.125 20.0504 8.125 19.6746V9.75798C8.125 9.38225 8.27426 9.02192 8.53993 8.75624C8.80561 8.49056 9.16594 8.34131 9.54167 8.34131H19.4583ZM19.1042 19.3205V15.5663C19.1042 14.9539 18.8609 14.3665 18.4278 13.9335C17.9948 13.5004 17.4074 13.2571 16.795 13.2571C16.1929 13.2571 15.4917 13.6255 15.1517 14.178V13.3917H13.1754V19.3205H15.1517V15.8284C15.1517 15.283 15.5908 14.8367 16.1363 14.8367C16.3993 14.8367 16.6515 14.9412 16.8375 15.1272C17.0234 15.3132 17.1279 15.5654 17.1279 15.8284V19.3205H19.1042ZM10.8733 12.2796C11.1889 12.2796 11.4916 12.1543 11.7148 11.9311C11.938 11.7079 12.0633 11.4052 12.0633 11.0896C12.0633 10.4309 11.5321 9.89256 10.8733 9.89256C10.5558 9.89256 10.2514 10.0187 10.0269 10.2432C9.80237 10.4677 9.67625 10.7722 9.67625 11.0896C9.67625 11.7484 10.2146 12.2796 10.8733 12.2796ZM11.8579 19.3205V13.3917H9.89583V19.3205H11.8579Z" fill="#E6E6E6"/>
</g>
</g>
<defs>
<filter id="filter0_d_2085_9" x="-76.9582" y="-76.9582" width="182.916" height="183.349" filterUnits="userSpaceOnUse" color-interpolation-filters="sRGB">
<feFlood flood-opacity="0" result="BackgroundImageFix"/>
<feColorMatrix in="SourceAlpha" type="matrix" values="0 0 0 0 0 0 0 0 0 0 0 0 0 0 0 0 0 0 127 0" result="hardAlpha"/>
<feOffset dy="1.73134"/>
<feGaussianBlur stdDeviation="2.07761"/>
<feComposite in2="hardAlpha" operator="out"/>
<feColorMatrix type="matrix" values="0 0 0 0 0 0 0 0 0 0 0 0 0 0 0 0 0 0 1 0"/>
<feBlend mode="normal" in2="BackgroundImageFix" result="effect1_dropShadow_2085_9"/>
<feBlend mode="normal" in="SourceGraphic" in2="effect1_dropShadow_2085_9" result="shape"/>
</filter>
<linearGradient id="paint0_linear_2085_9" x1="-27.4409" y1="-22.6002" x2="23.5938" y2="41.7565" gradientUnits="userSpaceOnUse">
<stop stop-color="#8C708B" stop-opacity="0.84"/>
<stop offset="1"/>
</linearGradient>
<clipPath id="clip0_2085_9">
<rect width="29" height="29.4328" fill="white"/>
</clipPath>
</defs>
</svg>
