<svg width="29" height="30" viewBox="0 0 29 30" fill="none" xmlns="http://www.w3.org/2000/svg">
<g clip-path="url(#clip0_2085_7)">
<g filter="url(#filter0_d_2085_7)">
<rect width="29" height="29.4328" rx="14.5" fill="#282228" shape-rendering="crispEdges"/>
<rect x="0.216418" y="0.216418" width="28.5672" height="29" rx="14.2836" stroke="url(#paint0_linear_2085_7)" stroke-width="0.432836" shape-rendering="crispEdges"/>
<path fill-rule="evenodd" clip-rule="evenodd" d="M14.4997 7.59131C18.7303 7.59131 22.4163 10.4754 22.4163 14.3205C22.4163 16.2656 21.3587 17.9463 19.8838 19.3001C18.4058 20.6578 16.4329 21.7621 14.3976 22.5768C14.1933 22.6591 13.9653 22.6606 13.76 22.5811C13.5546 22.5015 13.3872 22.3469 13.2916 22.1485C13.2093 21.9751 13.1887 21.7898 13.1831 21.6022L13.18 21.1787C13.1782 21.1322 13.175 21.0857 13.1705 21.0393C13.1435 20.7631 13.0707 20.5881 12.7802 20.5366C9.39184 19.9461 6.58301 17.6771 6.58301 14.3205C6.58301 10.4754 10.269 7.59131 14.4997 7.59131ZM16.083 12.3413C15.873 12.3413 15.6717 12.4247 15.5232 12.5732C15.3747 12.7216 15.2913 12.923 15.2913 13.133V13.3214L14.7118 12.6263C14.6077 12.5014 14.4676 12.4116 14.3106 12.3691C14.1536 12.3267 13.9873 12.3336 13.8344 12.3889C13.6814 12.4443 13.5493 12.5454 13.4558 12.6785C13.3624 12.8117 13.3122 12.9703 13.3122 13.133V15.508C13.3122 15.7179 13.3956 15.9193 13.544 16.0678C13.6925 16.2162 13.8939 16.2996 14.1038 16.2996C14.3138 16.2996 14.5152 16.2162 14.6636 16.0678C14.8121 15.9193 14.8955 15.7179 14.8955 15.508V15.3196L15.475 16.0146C15.5792 16.1396 15.7193 16.2293 15.8763 16.2718C16.0333 16.3143 16.1995 16.3074 16.3525 16.252C16.5054 16.1967 16.6376 16.0955 16.731 15.9624C16.8244 15.8293 16.8746 15.6706 16.8747 15.508V13.133C16.8747 12.923 16.7913 12.7216 16.6428 12.5732C16.4943 12.4247 16.293 12.3413 16.083 12.3413ZM9.74967 12.3413C9.53971 12.3413 9.33835 12.4247 9.18988 12.5732C9.04142 12.7216 8.95801 12.923 8.95801 13.133V15.508C8.95801 15.7179 9.04142 15.9193 9.18988 16.0678C9.33835 16.2162 9.53971 16.2996 9.74967 16.2996H10.5413C10.7513 16.2996 10.9527 16.2162 11.1011 16.0678C11.2496 15.9193 11.333 15.7179 11.333 15.508C11.333 15.298 11.2496 15.0966 11.1011 14.9482C10.9527 14.7997 10.7513 14.7163 10.5413 14.7163V13.133C10.5413 12.923 10.4579 12.7216 10.3095 12.5732C10.161 12.4247 9.95964 12.3413 9.74967 12.3413ZM12.1247 12.3413C11.9308 12.3413 11.7436 12.4125 11.5987 12.5414C11.4538 12.6702 11.3612 12.8478 11.3385 13.0404L11.333 13.133V15.508C11.3332 15.7098 11.4105 15.9038 11.549 16.0506C11.6875 16.1973 11.8768 16.2856 12.0783 16.2974C12.2797 16.3092 12.4781 16.2437 12.6328 16.1142C12.7875 15.9847 12.887 15.801 12.9108 15.6006L12.9163 15.508V13.133C12.9163 12.923 12.8329 12.7216 12.6845 12.5732C12.536 12.4247 12.3346 12.3413 12.1247 12.3413ZM19.2497 12.3413H18.0622C17.8683 12.3413 17.6811 12.4125 17.5362 12.5414C17.3913 12.6702 17.2987 12.8478 17.276 13.0404L17.2705 13.133V15.508C17.2705 15.7019 17.3417 15.889 17.4706 16.0339C17.5994 16.1788 17.777 16.2714 17.9695 16.2941L18.0622 16.2996H19.2497C19.4515 16.2994 19.6455 16.2222 19.7923 16.0836C19.939 15.9451 20.0273 15.7558 20.0391 15.5544C20.0509 15.3529 19.9854 15.1546 19.8559 14.9999C19.7264 14.8451 19.5427 14.7457 19.3423 14.7218L19.2497 14.7163H19.1436C19.2045 14.6109 19.2402 14.4928 19.2481 14.3713C19.2559 14.2498 19.2356 14.1281 19.1887 14.0157L19.1436 13.9246H19.2497C19.4515 13.9244 19.6455 13.8472 19.7923 13.7086C19.939 13.5701 20.0273 13.3808 20.0391 13.1794C20.0509 12.9779 19.9854 12.7796 19.8559 12.6249C19.7264 12.4701 19.5427 12.3707 19.3423 12.3468L19.2497 12.3413Z" fill="#E6E6E6"/>
</g>
</g>
<defs>
<filter id="filter0_d_2085_7" x="-76.9582" y="-76.9582" width="182.916" height="183.349" filterUnits="userSpaceOnUse" color-interpolation-filters="sRGB">
<feFlood flood-opacity="0" result="BackgroundImageFix"/>
<feColorMatrix in="SourceAlpha" type="matrix" values="0 0 0 0 0 0 0 0 0 0 0 0 0 0 0 0 0 0 127 0" result="hardAlpha"/>
<feOffset dy="1.73134"/>
<feGaussianBlur stdDeviation="2.07761"/>
<feComposite in2="hardAlpha" operator="out"/>
<feColorMatrix type="matrix" values="0 0 0 0 0 0 0 0 0 0 0 0 0 0 0 0 0 0 1 0"/>
<feBlend mode="normal" in2="BackgroundImageFix" result="effect1_dropShadow_2085_7"/>
<feBlend mode="normal" in="SourceGraphic" in2="effect1_dropShadow_2085_7" result="shape"/>
</filter>
<linearGradient id="paint0_linear_2085_7" x1="-27.4409" y1="-22.6002" x2="23.5938" y2="41.7565" gradientUnits="userSpaceOnUse">
<stop stop-color="#8C708B" stop-opacity="0.84"/>
<stop offset="1"/>
</linearGradient>
<clipPath id="clip0_2085_7">
<rect width="29" height="29.4328" fill="white"/>
</clipPath>
</defs>
</svg>
