<svg width="25" height="24" viewBox="0 0 25 24" fill="none" xmlns="http://www.w3.org/2000/svg">
<path fill-rule="evenodd" clip-rule="evenodd" d="M8.625 7C8.625 5.93913 9.04643 4.92172 9.79657 4.17157C10.5467 3.42143 11.5641 3 12.625 3C13.6859 3 14.7033 3.42143 15.4534 4.17157C16.2036 4.92172 16.625 5.93913 16.625 7C16.625 8.06087 16.2036 9.07828 15.4534 9.82843C14.7033 10.5786 13.6859 11 12.625 11C11.5641 11 10.5467 10.5786 9.79657 9.82843C9.04643 9.07828 8.625 8.06087 8.625 7ZM8.625 13C7.29892 13 6.02715 13.5268 5.08947 14.4645C4.15178 15.4021 3.625 16.6739 3.625 18C3.625 18.7956 3.94107 19.5587 4.50368 20.1213C5.06629 20.6839 5.82935 21 6.625 21H18.625C19.4206 21 20.1837 20.6839 20.7463 20.1213C21.3089 19.5587 21.625 18.7956 21.625 18C21.625 16.6739 21.0982 15.4021 20.1605 14.4645C19.2229 13.5268 17.9511 13 16.625 13H8.625Z" fill="#767676"/>
</svg>
