<svg width="29" height="28" viewBox="0 0 29 28" fill="none" xmlns="http://www.w3.org/2000/svg">
<g clip-path="url(#clip0_114_4204)">
<path d="M25.5673 15.4284C25.2417 15.1779 24.8628 15.0059 24.4599 14.9256C24.0569 14.8454 23.641 14.8591 23.2442 14.9658L18.668 16.018C18.7744 15.5682 18.7777 15.1002 18.6776 14.649C18.5774 14.1978 18.3765 13.7751 18.0898 13.4126C17.803 13.0501 17.438 12.7572 17.0219 12.5559C16.6059 12.3545 16.1497 12.25 15.6875 12.25H10.2122C9.75237 12.2488 9.29689 12.3388 8.87205 12.5147C8.44721 12.6906 8.06144 12.949 7.73703 13.2748L5.26297 15.75H2.125C1.66087 15.75 1.21575 15.9344 0.887563 16.2626C0.559374 16.5908 0.375 17.0359 0.375 17.5L0.375 21.875C0.375 22.3391 0.559374 22.7843 0.887563 23.1124C1.21575 23.4406 1.66087 23.625 2.125 23.625H13.5C13.5715 23.625 13.6428 23.6161 13.7122 23.5988L20.7122 21.8488C20.7568 21.8381 20.8004 21.8235 20.8423 21.805L25.0938 19.9959L25.1419 19.9741C25.5505 19.7699 25.9004 19.4651 26.1586 19.0883C26.4168 18.7115 26.5749 18.2752 26.6179 17.8205C26.6609 17.3658 26.5874 16.9076 26.4044 16.4891C26.2213 16.0706 25.9348 15.7056 25.5717 15.4284H25.5673ZM2.125 17.5H4.75V21.875H2.125V17.5ZM24.3752 18.398L20.2189 20.1677L13.3906 21.875H6.5V16.987L8.97516 14.513C9.13707 14.3498 9.32981 14.2204 9.54218 14.1323C9.75454 14.0442 9.98229 13.9993 10.2122 14H15.6875C16.0356 14 16.3694 14.1383 16.6156 14.3844C16.8617 14.6306 17 14.9644 17 15.3125C17 15.6606 16.8617 15.9944 16.6156 16.2406C16.3694 16.4867 16.0356 16.625 15.6875 16.625H12.625C12.3929 16.625 12.1704 16.7172 12.0063 16.8813C11.8422 17.0454 11.75 17.2679 11.75 17.5C11.75 17.7321 11.8422 17.9546 12.0063 18.1187C12.1704 18.2828 12.3929 18.375 12.625 18.375H16.125C16.1909 18.3748 16.2565 18.3675 16.3208 18.3531L23.6489 16.6677L23.6828 16.6589C23.9065 16.5968 24.1453 16.6196 24.3532 16.723C24.5611 16.8263 24.7234 17.0029 24.8089 17.2188C24.8944 17.4346 24.8971 17.6744 24.8164 17.8921C24.7357 18.1098 24.5774 18.29 24.3719 18.398H24.3752ZM18.3125 10.5C18.5287 10.5002 18.7445 10.4827 18.9578 10.4475C19.1977 11.1601 19.6367 11.7892 20.2228 12.2602C20.8088 12.7313 21.5176 13.0247 22.2651 13.1057C23.0127 13.1868 23.7678 13.0521 24.4412 12.7176C25.1146 12.383 25.6782 11.8627 26.0652 11.2181C26.4523 10.5734 26.6467 9.83139 26.6254 9.07977C26.6042 8.32814 26.3681 7.59832 25.9452 6.97659C25.5223 6.35486 24.9302 5.86723 24.2389 5.57134C23.5477 5.27545 22.7861 5.18368 22.0444 5.30688C21.8134 4.62027 21.3974 4.0107 20.8423 3.54526C20.2872 3.07981 19.6144 2.77653 18.898 2.66879C18.1817 2.56105 17.4495 2.65303 16.782 2.9346C16.1145 3.21618 15.5377 3.67643 15.1149 4.26471C14.6922 4.85299 14.4399 5.5465 14.3859 6.26891C14.3319 6.99132 14.4782 7.71463 14.8088 8.35924C15.1393 9.00385 15.6413 9.54477 16.2595 9.92247C16.8777 10.3002 17.5881 10.5 18.3125 10.5ZM24.875 9.1875C24.875 9.62015 24.7467 10.0431 24.5063 10.4028C24.266 10.7625 23.9243 11.0429 23.5246 11.2085C23.1249 11.3741 22.6851 11.4174 22.2607 11.333C21.8364 11.2486 21.4466 11.0402 21.1407 10.7343C20.8348 10.4284 20.6264 10.0386 20.542 9.61426C20.4576 9.18993 20.5009 8.75009 20.6665 8.35038C20.8321 7.95067 21.1125 7.60903 21.4722 7.36866C21.8319 7.1283 22.2549 7 22.6875 7C23.2677 7 23.8241 7.23047 24.2343 7.64071C24.6445 8.05094 24.875 8.60734 24.875 9.1875ZM18.3125 4.375C18.7897 4.37524 19.2537 4.53152 19.6339 4.82002C20.014 5.10853 20.2894 5.51342 20.418 5.97297C19.9698 6.28829 19.5924 6.69368 19.3099 7.16321C19.0274 7.63273 18.846 8.15605 18.7773 8.69969C18.6246 8.73269 18.4688 8.74956 18.3125 8.75C17.7323 8.75 17.1759 8.51953 16.7657 8.1093C16.3555 7.69906 16.125 7.14266 16.125 6.5625C16.125 5.98234 16.3555 5.42594 16.7657 5.01571C17.1759 4.60547 17.7323 4.375 18.3125 4.375Z" fill="#767676"/>
</g>
<defs>
<clipPath id="clip0_114_4204">
<rect width="28" height="28" fill="white" transform="translate(0.375)"/>
</clipPath>
</defs>
</svg>
