<svg width="29" height="30" viewBox="0 0 29 30" fill="none" xmlns="http://www.w3.org/2000/svg">
<g clip-path="url(#clip0_2085_6)">
<g filter="url(#filter0_d_2085_6)">
<rect width="29" height="29.4328" rx="14.5" fill="#282228" shape-rendering="crispEdges"/>
<rect x="0.216418" y="0.216418" width="28.5672" height="29" rx="14.2836" stroke="url(#paint0_linear_2085_6)" stroke-width="0.432836" shape-rendering="crispEdges"/>
<g clip-path="url(#clip1_2085_6)">
<mask id="mask0_2085_6" style="mask-type:luminance" maskUnits="userSpaceOnUse" x="8" y="8" width="13" height="14">
<path d="M8 8.21631H21V21.2163H8V8.21631Z" fill="white"/>
</mask>
<g mask="url(#mask0_2085_6)">
<path d="M18.2375 8.82568H20.2311L15.8761 13.8158L21 20.6074H16.9886L13.8444 16.4892L10.2509 20.6074H8.25536L12.9131 15.2681L8 8.82661H12.1136L14.9513 12.5901L18.2375 8.82568ZM17.5364 19.4114H18.6414L11.51 9.95947H10.3251L17.5364 19.4114Z" fill="#E6E6E6"/>
</g>
</g>
</g>
</g>
<defs>
<filter id="filter0_d_2085_6" x="-76.9582" y="-76.9582" width="182.916" height="183.349" filterUnits="userSpaceOnUse" color-interpolation-filters="sRGB">
<feFlood flood-opacity="0" result="BackgroundImageFix"/>
<feColorMatrix in="SourceAlpha" type="matrix" values="0 0 0 0 0 0 0 0 0 0 0 0 0 0 0 0 0 0 127 0" result="hardAlpha"/>
<feOffset dy="1.73134"/>
<feGaussianBlur stdDeviation="2.07761"/>
<feComposite in2="hardAlpha" operator="out"/>
<feColorMatrix type="matrix" values="0 0 0 0 0 0 0 0 0 0 0 0 0 0 0 0 0 0 1 0"/>
<feBlend mode="normal" in2="BackgroundImageFix" result="effect1_dropShadow_2085_6"/>
<feBlend mode="normal" in="SourceGraphic" in2="effect1_dropShadow_2085_6" result="shape"/>
</filter>
<linearGradient id="paint0_linear_2085_6" x1="-27.4409" y1="-22.6002" x2="23.5938" y2="41.7565" gradientUnits="userSpaceOnUse">
<stop stop-color="#8C708B" stop-opacity="0.84"/>
<stop offset="1"/>
</linearGradient>
<clipPath id="clip0_2085_6">
<rect width="29" height="29.4328" fill="white"/>
</clipPath>
<clipPath id="clip1_2085_6">
<rect width="13" height="13" fill="white" transform="translate(8 8.21631)"/>
</clipPath>
</defs>
</svg>
