<svg width="29" height="30" viewBox="0 0 29 30" fill="none" xmlns="http://www.w3.org/2000/svg">
<g clip-path="url(#clip0_2085_8)">
<g filter="url(#filter0_d_2085_8)">
<rect width="29" height="29.4328" rx="14.5" fill="#282228" shape-rendering="crispEdges"/>
<rect x="0.216418" y="0.216418" width="28.5672" height="29" rx="14.2836" stroke="url(#paint0_linear_2085_8)" stroke-width="0.432836" shape-rendering="crispEdges"/>
<path d="M14.4997 6.7998C10.1297 6.7998 6.58301 10.3465 6.58301 14.7165C6.58301 19.0865 10.1297 22.6331 14.4997 22.6331C18.8697 22.6331 22.4163 19.0865 22.4163 14.7165C22.4163 10.3465 18.8697 6.7998 14.4997 6.7998ZM18.173 12.1831C18.0543 13.434 17.5397 16.474 17.2784 17.8752C17.1676 18.469 16.9459 18.6669 16.7401 18.6906C16.2809 18.7302 15.9326 18.3898 15.4893 18.0969C14.7926 17.6377 14.3968 17.3527 13.7238 16.9094C12.9401 16.3948 13.4468 16.1098 13.898 15.6506C14.0168 15.5319 16.0434 13.6873 16.083 13.5211C16.0885 13.4959 16.0878 13.4697 16.0809 13.4449C16.074 13.4201 16.0611 13.3973 16.0434 13.3786C15.9959 13.339 15.9326 13.3548 15.8772 13.3627C15.8059 13.3786 14.6976 14.1148 12.5363 15.5715C12.2197 15.7852 11.9347 15.8961 11.6813 15.8881C11.3963 15.8802 10.858 15.7298 10.4543 15.5952C9.95551 15.4369 9.56759 15.3498 9.59926 15.0727C9.61509 14.9302 9.81301 14.7877 10.1851 14.6373C12.4968 13.6319 14.0326 12.9669 14.8005 12.6502C17.0013 11.7319 17.4526 11.5736 17.7534 11.5736C17.8168 11.5736 17.9672 11.5894 18.0622 11.6686C18.1413 11.7319 18.1651 11.819 18.173 11.8823C18.1651 11.9298 18.1809 12.0723 18.173 12.1831Z" fill="#E6E6E6"/>
</g>
</g>
<defs>
<filter id="filter0_d_2085_8" x="-76.9582" y="-76.9582" width="182.916" height="183.349" filterUnits="userSpaceOnUse" color-interpolation-filters="sRGB">
<feFlood flood-opacity="0" result="BackgroundImageFix"/>
<feColorMatrix in="SourceAlpha" type="matrix" values="0 0 0 0 0 0 0 0 0 0 0 0 0 0 0 0 0 0 127 0" result="hardAlpha"/>
<feOffset dy="1.73134"/>
<feGaussianBlur stdDeviation="2.07761"/>
<feComposite in2="hardAlpha" operator="out"/>
<feColorMatrix type="matrix" values="0 0 0 0 0 0 0 0 0 0 0 0 0 0 0 0 0 0 1 0"/>
<feBlend mode="normal" in2="BackgroundImageFix" result="effect1_dropShadow_2085_8"/>
<feBlend mode="normal" in="SourceGraphic" in2="effect1_dropShadow_2085_8" result="shape"/>
</filter>
<linearGradient id="paint0_linear_2085_8" x1="-27.4409" y1="-22.6002" x2="23.5938" y2="41.7565" gradientUnits="userSpaceOnUse">
<stop stop-color="#8C708B" stop-opacity="0.84"/>
<stop offset="1"/>
</linearGradient>
<clipPath id="clip0_2085_8">
<rect width="29" height="29.4328" fill="white"/>
</clipPath>
</defs>
</svg>
