<svg width="34" height="34" viewBox="0 0 34 34" fill="none" xmlns="http://www.w3.org/2000/svg">
<path d="M17.0002 18.4168C20.1298 18.4168 22.6668 15.8798 22.6668 12.7502C22.6668 9.62055 20.1298 7.0835 17.0002 7.0835C13.8705 7.0835 11.3335 9.62055 11.3335 12.7502C11.3335 15.8798 13.8705 18.4168 17.0002 18.4168Z" fill="#E6E6E6"/>
<path d="M24.0835 17C26.4307 17 28.3335 15.0972 28.3335 12.75C28.3335 10.4028 26.4307 8.5 24.0835 8.5C21.7363 8.5 19.8335 10.4028 19.8335 12.75C19.8335 15.0972 21.7363 17 24.0835 17Z" fill="#E6E6E6"/>
<path d="M9.9165 17C12.2637 17 14.1665 15.0972 14.1665 12.75C14.1665 10.4028 12.2637 8.5 9.9165 8.5C7.56929 8.5 5.6665 10.4028 5.6665 12.75C5.6665 15.0972 7.56929 17 9.9165 17Z" fill="#E6E6E6"/>
<path fill-rule="evenodd" clip-rule="evenodd" d="M24.8895 25.4998H28.1847C29.0233 25.4998 29.6651 24.7773 29.4625 23.9641C28.9397 21.8816 27.5514 18.4164 24.0834 18.4164C22.8282 18.4164 21.8451 18.8698 21.0772 19.5498C23.2136 20.9339 24.3186 23.3606 24.8895 25.4998ZM12.9229 19.5498C12.1 18.8059 11.026 18.401 9.91674 18.4164C6.44874 18.4164 5.06041 21.8816 4.53766 23.9641C4.33507 24.7773 4.97682 25.4998 5.81549 25.4998H9.11207C9.68299 23.3606 10.7866 20.9339 12.9229 19.5498Z" fill="#E6E6E6"/>
<path d="M16.9999 19.8335C22.2543 19.8335 23.6101 24.5099 23.9614 26.9253C24.0747 27.7002 23.4486 28.3335 22.6666 28.3335H11.3332C10.5512 28.3335 9.92649 27.7002 10.0384 26.9253C10.3897 24.5099 11.7455 19.8335 16.9999 19.8335Z" fill="#E6E6E6"/>
</svg>
