<svg width="29" height="30" viewBox="0 0 29 30" fill="none" xmlns="http://www.w3.org/2000/svg">
<g clip-path="url(#clip0_2085_4)">
<g filter="url(#filter0_d_2085_4)">
<rect width="29" height="29.4328" rx="14.5" fill="#282228" shape-rendering="crispEdges"/>
<rect x="0.216418" y="0.216418" width="28.5672" height="29" rx="14.2836" stroke="url(#paint0_linear_2085_4)" stroke-width="0.432836" shape-rendering="crispEdges"/>
<path d="M14.5007 8.0498C18.1827 8.0498 21.1673 11.0345 21.1673 14.7165C21.1673 18.3985 18.1827 21.3831 14.5007 21.3831C13.3225 21.3852 12.165 21.0734 11.1473 20.4798L7.83666 21.3831L8.73799 18.0711C8.14397 17.0531 7.83193 15.8951 7.83399 14.7165C7.83399 11.0345 10.8187 8.0498 14.5007 8.0498ZM12.2287 11.5831L12.0953 11.5885C12.0091 11.5944 11.9249 11.6171 11.8473 11.6551C11.775 11.6961 11.709 11.7473 11.6513 11.8071C11.5713 11.8825 11.526 11.9478 11.4773 12.0111C11.2307 12.3317 11.098 12.7253 11.1 13.1298C11.1013 13.4565 11.1867 13.7745 11.32 14.0718C11.5927 14.6731 12.0413 15.3098 12.6333 15.8998C12.776 16.0418 12.916 16.1845 13.0667 16.3171C13.8023 16.9647 14.6788 17.4318 15.6267 17.6811L16.0053 17.7391C16.1287 17.7458 16.252 17.7365 16.376 17.7305C16.5701 17.7202 16.7597 17.6677 16.9313 17.5765C17.0186 17.5314 17.1038 17.4824 17.1867 17.4298C17.1867 17.4298 17.2149 17.4107 17.27 17.3698C17.36 17.3031 17.4153 17.2558 17.49 17.1778C17.546 17.12 17.5927 17.0529 17.63 16.9765C17.682 16.8678 17.734 16.6605 17.7553 16.4878C17.7713 16.3558 17.7667 16.2838 17.7647 16.2391C17.762 16.1678 17.7027 16.0938 17.638 16.0625L17.25 15.8885C17.25 15.8885 16.67 15.6358 16.3153 15.4745C16.2782 15.4583 16.2384 15.449 16.198 15.4471C16.1524 15.4424 16.1063 15.4475 16.0628 15.4621C16.0193 15.4767 15.9795 15.5005 15.946 15.5318C15.9427 15.5305 15.898 15.5685 15.416 16.1525C15.3883 16.1896 15.3502 16.2177 15.3065 16.2332C15.2628 16.2486 15.2155 16.2507 15.1707 16.2391C15.1272 16.2276 15.0847 16.2129 15.0433 16.1951C14.9607 16.1605 14.932 16.1471 14.8753 16.1231C14.4926 15.9564 14.1383 15.7308 13.8253 15.4545C13.7413 15.3811 13.6633 15.3011 13.5833 15.2238C13.3211 14.9726 13.0925 14.6885 12.9033 14.3785L12.864 14.3151C12.8362 14.2723 12.8134 14.2265 12.796 14.1785C12.7707 14.0805 12.8367 14.0018 12.8367 14.0018C12.8367 14.0018 12.9987 13.8245 13.074 13.7285C13.1473 13.6351 13.2093 13.5445 13.2493 13.4798C13.328 13.3531 13.3527 13.2231 13.3113 13.1225C13.1247 12.6665 12.9318 12.2129 12.7327 11.7618C12.6933 11.6725 12.5767 11.6085 12.4707 11.5958C12.4347 11.5914 12.3987 11.5878 12.3627 11.5851C12.2731 11.58 12.1834 11.5809 12.094 11.5878L12.2287 11.5831Z" fill="#E6E6E6"/>
</g>
</g>
<defs>
<filter id="filter0_d_2085_4" x="-76.9582" y="-76.9582" width="182.916" height="183.349" filterUnits="userSpaceOnUse" color-interpolation-filters="sRGB">
<feFlood flood-opacity="0" result="BackgroundImageFix"/>
<feColorMatrix in="SourceAlpha" type="matrix" values="0 0 0 0 0 0 0 0 0 0 0 0 0 0 0 0 0 0 127 0" result="hardAlpha"/>
<feOffset dy="1.73134"/>
<feGaussianBlur stdDeviation="2.07761"/>
<feComposite in2="hardAlpha" operator="out"/>
<feColorMatrix type="matrix" values="0 0 0 0 0 0 0 0 0 0 0 0 0 0 0 0 0 0 1 0"/>
<feBlend mode="normal" in2="BackgroundImageFix" result="effect1_dropShadow_2085_4"/>
<feBlend mode="normal" in="SourceGraphic" in2="effect1_dropShadow_2085_4" result="shape"/>
</filter>
<linearGradient id="paint0_linear_2085_4" x1="-27.4409" y1="-22.6002" x2="23.5938" y2="41.7565" gradientUnits="userSpaceOnUse">
<stop stop-color="#8C708B" stop-opacity="0.84"/>
<stop offset="1"/>
</linearGradient>
<clipPath id="clip0_2085_4">
<rect width="29" height="29.4328" fill="white"/>
</clipPath>
</defs>
</svg>
