<svg width="147" height="88" viewBox="0 0 147 88" fill="none" xmlns="http://www.w3.org/2000/svg">
<path d="M63.25 30.7897V28.875C63.25 20.2537 50.2459 13.75 33 13.75C15.7541 13.75 2.75 20.2537 2.75 28.875V42.625C2.75 49.8059 11.7734 55.5122 24.75 57.2206V59.125C24.75 67.7463 37.7541 74.25 55 74.25C72.2459 74.25 85.25 67.7463 85.25 59.125V45.375C85.25 38.2594 76.5119 32.5462 63.25 30.7897ZM79.75 45.375C79.75 49.9194 69.1659 55 55 55C53.7178 55 52.4459 54.9553 51.1912 54.8728C58.6059 52.1709 63.25 47.7812 63.25 42.625V36.3481C73.5178 37.8778 79.75 42.0303 79.75 45.375ZM24.75 51.6484V43.4706C27.4855 43.8268 30.2414 44.0036 33 44C35.7586 44.0036 38.5145 43.8268 41.25 43.4706V51.6484C38.5186 52.052 35.7611 52.253 33 52.25C30.2389 52.253 27.4814 52.052 24.75 51.6484ZM57.75 37.7884V42.625C57.75 45.5091 53.4841 48.6062 46.75 50.4866V42.4531C51.1878 41.3772 54.945 39.7753 57.75 37.7884ZM33 19.25C47.1659 19.25 57.75 24.3306 57.75 28.875C57.75 33.4194 47.1659 38.5 33 38.5C18.8341 38.5 8.25 33.4194 8.25 28.875C8.25 24.3306 18.8341 19.25 33 19.25ZM8.25 42.625V37.7884C11.055 39.7753 14.8122 41.3772 19.25 42.4531V50.4866C12.5159 48.6062 8.25 45.5091 8.25 42.625ZM30.25 59.125V57.6916C31.1541 57.7259 32.0684 57.75 33 57.75C34.3337 57.75 35.6366 57.7053 36.9153 57.6297C38.3359 58.1382 39.7829 58.5696 41.25 58.9222V66.9866C34.5159 65.1062 30.25 62.0091 30.25 59.125ZM46.75 68.1484V59.95C49.4846 60.3176 52.2408 60.5013 55 60.5C57.7586 60.5036 60.5145 60.3268 63.25 59.9706V68.1484C57.7792 68.9503 52.2208 68.9503 46.75 68.1484ZM68.75 66.9866V58.9531C73.1878 57.8772 76.945 56.2753 79.75 54.2884V59.125C79.75 62.0091 75.4841 65.1062 68.75 66.9866Z" fill="#00FFE7"/>
<path d="M114 53.4189L114 41.625L91 41.625L91 27.375L114 27.375L114 15.5811L132.919 34.5L114 53.4189Z" stroke="#00FFE7" stroke-width="3"/>
</svg>
