<svg width="615" height="139" viewBox="0 0 615 139" fill="none" xmlns="http://www.w3.org/2000/svg">
<path d="M6.084 112.216C5.244 112.216 4.464 112.06 3.744 111.748C3.024 111.424 2.412 110.986 1.908 110.434C1.404 109.882 1.032 109.246 0.792 108.526L2.592 107.77C2.916 108.598 3.39 109.234 4.014 109.678C4.638 110.122 5.358 110.344 6.174 110.344C6.654 110.344 7.074 110.272 7.434 110.128C7.794 109.972 8.07 109.756 8.262 109.48C8.466 109.204 8.568 108.886 8.568 108.526C8.568 108.034 8.43 107.644 8.154 107.356C7.878 107.068 7.47 106.84 6.93 106.672L4.41 105.88C3.402 105.568 2.634 105.094 2.106 104.458C1.578 103.81 1.314 103.054 1.314 102.19C1.314 101.434 1.5 100.774 1.872 100.21C2.244 99.634 2.754 99.184 3.402 98.86C4.062 98.536 4.812 98.374 5.652 98.374C6.456 98.374 7.188 98.518 7.848 98.806C8.508 99.082 9.072 99.466 9.54 99.958C10.02 100.45 10.368 101.02 10.584 101.668L8.82 102.442C8.556 101.734 8.142 101.188 7.578 100.804C7.026 100.42 6.384 100.228 5.652 100.228C5.208 100.228 4.818 100.306 4.482 100.462C4.146 100.606 3.882 100.822 3.69 101.11C3.51 101.386 3.42 101.71 3.42 102.082C3.42 102.514 3.558 102.898 3.834 103.234C4.11 103.57 4.53 103.822 5.094 103.99L7.434 104.728C8.502 105.052 9.306 105.52 9.846 106.132C10.386 106.732 10.656 107.482 10.656 108.382C10.656 109.126 10.458 109.786 10.062 110.362C9.678 110.938 9.144 111.394 8.46 111.73C7.776 112.054 6.984 112.216 6.084 112.216ZM12.8423 112V98.374H14.8763V104.17L14.5523 103.918C14.7923 103.306 15.1763 102.844 15.7043 102.532C16.2323 102.208 16.8443 102.046 17.5403 102.046C18.2603 102.046 18.8963 102.202 19.4483 102.514C20.0003 102.826 20.4323 103.258 20.7443 103.81C21.0563 104.362 21.2123 104.992 21.2123 105.7V112H19.1963V106.258C19.1963 105.766 19.1003 105.352 18.9083 105.016C18.7283 104.668 18.4763 104.404 18.1523 104.224C17.8283 104.032 17.4563 103.936 17.0363 103.936C16.6283 103.936 16.2563 104.032 15.9203 104.224C15.5963 104.404 15.3383 104.668 15.1463 105.016C14.9663 105.364 14.8763 105.778 14.8763 106.258V112H12.8423ZM26.3052 112.216C25.6452 112.216 25.0632 112.102 24.5592 111.874C24.0672 111.634 23.6832 111.31 23.4072 110.902C23.1312 110.482 22.9932 109.99 22.9932 109.426C22.9932 108.898 23.1072 108.424 23.3352 108.004C23.5752 107.584 23.9412 107.23 24.4332 106.942C24.9252 106.654 25.5432 106.45 26.2872 106.33L29.6712 105.772V107.374L26.6832 107.896C26.1432 107.992 25.7472 108.166 25.4952 108.418C25.2432 108.658 25.1172 108.97 25.1172 109.354C25.1172 109.726 25.2552 110.032 25.5312 110.272C25.8192 110.5 26.1852 110.614 26.6292 110.614C27.1812 110.614 27.6612 110.494 28.0692 110.254C28.4892 110.014 28.8132 109.696 29.0412 109.3C29.2692 108.892 29.3832 108.442 29.3832 107.95V105.448C29.3832 104.968 29.2032 104.578 28.8432 104.278C28.4952 103.966 28.0272 103.81 27.4392 103.81C26.8992 103.81 26.4252 103.954 26.0172 104.242C25.6212 104.518 25.3272 104.878 25.1352 105.322L23.4432 104.476C23.6232 103.996 23.9172 103.576 24.3252 103.216C24.7332 102.844 25.2072 102.556 25.7472 102.352C26.2992 102.148 26.8812 102.046 27.4932 102.046C28.2612 102.046 28.9392 102.19 29.5272 102.478C30.1272 102.766 30.5892 103.168 30.9132 103.684C31.2492 104.188 31.4172 104.776 31.4172 105.448V112H29.4732V110.236L29.8872 110.29C29.6592 110.686 29.3652 111.028 29.0052 111.316C28.6572 111.604 28.2552 111.826 27.7992 111.982C27.3552 112.138 26.8572 112.216 26.3052 112.216ZM33.7954 112V102.262H35.7394V104.224L35.5594 103.936C35.7754 103.3 36.1234 102.844 36.6034 102.568C37.0834 102.28 37.6594 102.136 38.3314 102.136H38.9254V103.99H38.0794C37.4074 103.99 36.8614 104.2 36.4414 104.62C36.0334 105.028 35.8294 105.616 35.8294 106.384V112H33.7954ZM44.8889 112.216C43.9169 112.216 43.0529 111.994 42.2969 111.55C41.5529 111.094 40.9709 110.482 40.5509 109.714C40.1309 108.934 39.9209 108.064 39.9209 107.104C39.9209 106.12 40.1309 105.25 40.5509 104.494C40.9829 103.738 41.5589 103.144 42.2789 102.712C42.9989 102.268 43.8149 102.046 44.7269 102.046C45.4589 102.046 46.1129 102.172 46.6889 102.424C47.2649 102.676 47.7509 103.024 48.1469 103.468C48.5429 103.9 48.8429 104.398 49.0469 104.962C49.2629 105.526 49.3709 106.126 49.3709 106.762C49.3709 106.918 49.3649 107.08 49.3529 107.248C49.3409 107.416 49.3169 107.572 49.2809 107.716H41.5229V106.096H48.1289L47.1569 106.834C47.2769 106.246 47.2349 105.724 47.0309 105.268C46.8389 104.8 46.5389 104.434 46.1309 104.17C45.7349 103.894 45.2669 103.756 44.7269 103.756C44.1869 103.756 43.7069 103.894 43.2869 104.17C42.8669 104.434 42.5429 104.818 42.3149 105.322C42.0869 105.814 41.9969 106.414 42.0449 107.122C41.9849 107.782 42.0749 108.358 42.3149 108.85C42.5669 109.342 42.9149 109.726 43.3589 110.002C43.8149 110.278 44.3309 110.416 44.9069 110.416C45.4949 110.416 45.9929 110.284 46.4009 110.02C46.8209 109.756 47.1509 109.414 47.3909 108.994L49.0469 109.804C48.8549 110.26 48.5549 110.674 48.1469 111.046C47.7509 111.406 47.2709 111.694 46.7069 111.91C46.1549 112.114 45.5489 112.216 44.8889 112.216ZM55.3665 115.96C55.1265 115.96 54.8865 115.936 54.6465 115.888C54.4185 115.852 54.2085 115.792 54.0165 115.708V113.962C54.1605 113.998 54.3345 114.028 54.5385 114.052C54.7425 114.088 54.9405 114.106 55.1325 114.106C55.6965 114.106 56.1105 113.98 56.3745 113.728C56.6505 113.488 56.8965 113.116 57.1125 112.612L57.7605 111.136L57.7245 112.846L53.5125 102.262H55.6905L58.8045 110.38H58.0665L61.1625 102.262H63.3585L59.0565 113.062C58.8285 113.638 58.5405 114.142 58.1925 114.574C57.8565 115.018 57.4545 115.36 56.9865 115.6C56.5305 115.84 55.9905 115.96 55.3665 115.96ZM69.2727 112.216C68.3367 112.216 67.4787 111.994 66.6987 111.55C65.9307 111.106 65.3187 110.5 64.8627 109.732C64.4067 108.964 64.1787 108.094 64.1787 107.122C64.1787 106.138 64.4067 105.268 64.8627 104.512C65.3187 103.744 65.9307 103.144 66.6987 102.712C67.4667 102.268 68.3247 102.046 69.2727 102.046C70.2327 102.046 71.0907 102.268 71.8467 102.712C72.6147 103.144 73.2207 103.744 73.6647 104.512C74.1207 105.268 74.3487 106.138 74.3487 107.122C74.3487 108.106 74.1207 108.982 73.6647 109.75C73.2087 110.518 72.5967 111.124 71.8287 111.568C71.0607 112 70.2087 112.216 69.2727 112.216ZM69.2727 110.326C69.8487 110.326 70.3587 110.188 70.8027 109.912C71.2467 109.636 71.5947 109.258 71.8467 108.778C72.1107 108.286 72.2427 107.734 72.2427 107.122C72.2427 106.51 72.1107 105.964 71.8467 105.484C71.5947 105.004 71.2467 104.626 70.8027 104.35C70.3587 104.074 69.8487 103.936 69.2727 103.936C68.7087 103.936 68.1987 104.074 67.7427 104.35C67.2987 104.626 66.9447 105.004 66.6807 105.484C66.4287 105.964 66.3027 106.51 66.3027 107.122C66.3027 107.734 66.4287 108.286 66.6807 108.778C66.9447 109.258 67.2987 109.636 67.7427 109.912C68.1987 110.188 68.7087 110.326 69.2727 110.326ZM79.8085 112.216C79.0765 112.216 78.4345 112.054 77.8825 111.73C77.3305 111.394 76.8985 110.932 76.5865 110.344C76.2865 109.744 76.1365 109.054 76.1365 108.274V102.262H78.1705V108.094C78.1705 108.538 78.2605 108.928 78.4405 109.264C78.6205 109.6 78.8725 109.864 79.1965 110.056C79.5205 110.236 79.8925 110.326 80.3125 110.326C80.7445 110.326 81.1225 110.23 81.4465 110.038C81.7705 109.846 82.0225 109.576 82.2025 109.228C82.3945 108.88 82.4905 108.472 82.4905 108.004V102.262H84.5065V112H82.5805V110.092L82.7965 110.344C82.5685 110.944 82.1905 111.406 81.6625 111.73C81.1345 112.054 80.5165 112.216 79.8085 112.216ZM86.8814 112V102.262H88.8254V104.224L88.6454 103.936C88.8614 103.3 89.2094 102.844 89.6894 102.568C90.1694 102.28 90.7454 102.136 91.4174 102.136H92.0114V103.99H91.1654C90.4934 103.99 89.9474 104.2 89.5274 104.62C89.1194 105.028 88.9154 105.616 88.9154 106.384V112H86.8814ZM96.5493 112V102.262H98.5833V112H96.5493ZM96.5493 100.93V98.59H98.5833V100.93H96.5493ZM100.961 112V102.262H102.905V104.17L102.671 103.918C102.911 103.306 103.295 102.844 103.823 102.532C104.351 102.208 104.963 102.046 105.659 102.046C106.379 102.046 107.015 102.202 107.567 102.514C108.119 102.826 108.551 103.258 108.863 103.81C109.175 104.362 109.331 104.998 109.331 105.718V112H107.315V106.258C107.315 105.766 107.225 105.352 107.045 105.016C106.865 104.668 106.607 104.404 106.271 104.224C105.947 104.032 105.575 103.936 105.155 103.936C104.735 103.936 104.357 104.032 104.021 104.224C103.697 104.404 103.445 104.668 103.265 105.016C103.085 105.364 102.995 105.778 102.995 106.258V112H100.961ZM114.159 112L110.343 102.262H112.557L115.491 110.2H114.681L117.615 102.262H119.847L116.013 112H114.159ZM121.229 112V102.262H123.263V112H121.229ZM121.229 100.93V98.59H123.263V100.93H121.229ZM129.853 112.108C128.833 112.108 128.041 111.82 127.477 111.244C126.913 110.668 126.631 109.858 126.631 108.814V104.098H124.921V102.262H125.191C125.647 102.262 126.001 102.13 126.253 101.866C126.505 101.602 126.631 101.242 126.631 100.786V100.03H128.665V102.262H130.879V104.098H128.665V108.724C128.665 109.06 128.719 109.348 128.827 109.588C128.935 109.816 129.109 109.996 129.349 110.128C129.589 110.248 129.901 110.308 130.285 110.308C130.381 110.308 130.489 110.302 130.609 110.29C130.729 110.278 130.843 110.266 130.951 110.254V112C130.783 112.024 130.597 112.048 130.393 112.072C130.189 112.096 130.009 112.108 129.853 112.108ZM137.332 112.216C136.36 112.216 135.496 111.994 134.74 111.55C133.996 111.094 133.414 110.482 132.994 109.714C132.574 108.934 132.364 108.064 132.364 107.104C132.364 106.12 132.574 105.25 132.994 104.494C133.426 103.738 134.002 103.144 134.722 102.712C135.442 102.268 136.258 102.046 137.17 102.046C137.902 102.046 138.556 102.172 139.132 102.424C139.708 102.676 140.194 103.024 140.59 103.468C140.986 103.9 141.286 104.398 141.49 104.962C141.706 105.526 141.814 106.126 141.814 106.762C141.814 106.918 141.808 107.08 141.796 107.248C141.784 107.416 141.76 107.572 141.724 107.716H133.966V106.096H140.572L139.6 106.834C139.72 106.246 139.678 105.724 139.474 105.268C139.282 104.8 138.982 104.434 138.574 104.17C138.178 103.894 137.71 103.756 137.17 103.756C136.63 103.756 136.15 103.894 135.73 104.17C135.31 104.434 134.986 104.818 134.758 105.322C134.53 105.814 134.44 106.414 134.488 107.122C134.428 107.782 134.518 108.358 134.758 108.85C135.01 109.342 135.358 109.726 135.802 110.002C136.258 110.278 136.774 110.416 137.35 110.416C137.938 110.416 138.436 110.284 138.844 110.02C139.264 109.756 139.594 109.414 139.834 108.994L141.49 109.804C141.298 110.26 140.998 110.674 140.59 111.046C140.194 111.406 139.714 111.694 139.15 111.91C138.598 112.114 137.992 112.216 137.332 112.216ZM146.946 112V98.374H148.98V112H146.946ZM151.358 112V102.262H153.392V112H151.358ZM151.358 100.93V98.59H153.392V100.93H151.358ZM155.77 112V102.262H157.714V104.17L157.48 103.918C157.72 103.306 158.104 102.844 158.632 102.532C159.16 102.208 159.772 102.046 160.468 102.046C161.188 102.046 161.824 102.202 162.376 102.514C162.928 102.826 163.36 103.258 163.672 103.81C163.984 104.362 164.14 104.998 164.14 105.718V112H162.124V106.258C162.124 105.766 162.034 105.352 161.854 105.016C161.674 104.668 161.416 104.404 161.08 104.224C160.756 104.032 160.384 103.936 159.964 103.936C159.544 103.936 159.166 104.032 158.83 104.224C158.506 104.404 158.254 104.668 158.074 105.016C157.894 105.364 157.804 105.778 157.804 106.258V112H155.77ZM166.317 112V98.374H168.351V107.5L167.559 107.302L172.437 102.262H174.975L171.303 106.168L175.137 112H172.797L169.377 106.834L170.583 106.672L167.703 109.732L168.351 108.382V112H166.317Z" fill="white"/>
<path d="M226.527 112V98.59H235.257V100.48H228.651V104.512H234.537V106.402H228.651V112H226.527ZM236.295 112V102.262H238.239V104.224L238.059 103.936C238.275 103.3 238.623 102.844 239.103 102.568C239.583 102.28 240.159 102.136 240.831 102.136H241.425V103.99H240.579C239.907 103.99 239.361 104.2 238.941 104.62C238.533 105.028 238.329 105.616 238.329 106.384V112H236.295ZM242.817 112V102.262H244.851V112H242.817ZM242.817 100.93V98.59H244.851V100.93H242.817ZM251.801 112.216C250.829 112.216 249.965 111.994 249.209 111.55C248.465 111.094 247.883 110.482 247.463 109.714C247.043 108.934 246.833 108.064 246.833 107.104C246.833 106.12 247.043 105.25 247.463 104.494C247.895 103.738 248.471 103.144 249.191 102.712C249.911 102.268 250.727 102.046 251.639 102.046C252.371 102.046 253.025 102.172 253.601 102.424C254.177 102.676 254.663 103.024 255.059 103.468C255.455 103.9 255.755 104.398 255.959 104.962C256.175 105.526 256.283 106.126 256.283 106.762C256.283 106.918 256.277 107.08 256.265 107.248C256.253 107.416 256.229 107.572 256.193 107.716H248.435V106.096H255.041L254.069 106.834C254.189 106.246 254.147 105.724 253.943 105.268C253.751 104.8 253.451 104.434 253.043 104.17C252.647 103.894 252.179 103.756 251.639 103.756C251.099 103.756 250.619 103.894 250.199 104.17C249.779 104.434 249.455 104.818 249.227 105.322C248.999 105.814 248.909 106.414 248.957 107.122C248.897 107.782 248.987 108.358 249.227 108.85C249.479 109.342 249.827 109.726 250.271 110.002C250.727 110.278 251.243 110.416 251.819 110.416C252.407 110.416 252.905 110.284 253.313 110.02C253.733 109.756 254.063 109.414 254.303 108.994L255.959 109.804C255.767 110.26 255.467 110.674 255.059 111.046C254.663 111.406 254.183 111.694 253.619 111.91C253.067 112.114 252.461 112.216 251.801 112.216ZM258.268 112V102.262H260.212V104.17L259.978 103.918C260.218 103.306 260.602 102.844 261.13 102.532C261.658 102.208 262.27 102.046 262.966 102.046C263.686 102.046 264.322 102.202 264.874 102.514C265.426 102.826 265.858 103.258 266.17 103.81C266.482 104.362 266.638 104.998 266.638 105.718V112H264.622V106.258C264.622 105.766 264.532 105.352 264.352 105.016C264.172 104.668 263.914 104.404 263.578 104.224C263.254 104.032 262.882 103.936 262.462 103.936C262.042 103.936 261.664 104.032 261.328 104.224C261.004 104.404 260.752 104.668 260.572 105.016C260.392 105.364 260.302 105.778 260.302 106.258V112H258.268ZM273.315 112.216C272.379 112.216 271.539 111.994 270.795 111.55C270.063 111.094 269.481 110.482 269.049 109.714C268.629 108.946 268.419 108.082 268.419 107.122C268.419 106.162 268.635 105.298 269.067 104.53C269.499 103.762 270.081 103.156 270.813 102.712C271.545 102.268 272.373 102.046 273.297 102.046C274.077 102.046 274.767 102.202 275.367 102.514C275.967 102.826 276.441 103.258 276.789 103.81L276.483 104.278V98.374H278.499V112H276.573V110.02L276.807 110.398C276.471 110.986 275.991 111.436 275.367 111.748C274.743 112.06 274.059 112.216 273.315 112.216ZM273.513 110.326C274.077 110.326 274.581 110.188 275.025 109.912C275.481 109.636 275.835 109.258 276.087 108.778C276.351 108.286 276.483 107.734 276.483 107.122C276.483 106.51 276.351 105.964 276.087 105.484C275.835 105.004 275.481 104.626 275.025 104.35C274.581 104.074 274.077 103.936 273.513 103.936C272.949 103.936 272.439 104.074 271.983 104.35C271.527 104.626 271.173 105.004 270.921 105.484C270.669 105.964 270.543 106.51 270.543 107.122C270.543 107.734 270.669 108.286 270.921 108.778C271.173 109.258 271.521 109.636 271.965 109.912C272.421 110.188 272.937 110.326 273.513 110.326ZM284.02 112V102.262H285.964V104.224L285.784 103.936C286 103.3 286.348 102.844 286.828 102.568C287.308 102.28 287.884 102.136 288.556 102.136H289.15V103.99H288.304C287.632 103.99 287.086 104.2 286.666 104.62C286.258 105.028 286.054 105.616 286.054 106.384V112H284.02ZM295.114 112.216C294.142 112.216 293.278 111.994 292.522 111.55C291.778 111.094 291.196 110.482 290.776 109.714C290.356 108.934 290.146 108.064 290.146 107.104C290.146 106.12 290.356 105.25 290.776 104.494C291.208 103.738 291.784 103.144 292.504 102.712C293.224 102.268 294.04 102.046 294.952 102.046C295.684 102.046 296.338 102.172 296.914 102.424C297.49 102.676 297.976 103.024 298.372 103.468C298.768 103.9 299.068 104.398 299.272 104.962C299.488 105.526 299.596 106.126 299.596 106.762C299.596 106.918 299.59 107.08 299.578 107.248C299.566 107.416 299.542 107.572 299.506 107.716H291.748V106.096H298.354L297.382 106.834C297.502 106.246 297.46 105.724 297.256 105.268C297.064 104.8 296.764 104.434 296.356 104.17C295.96 103.894 295.492 103.756 294.952 103.756C294.412 103.756 293.932 103.894 293.512 104.17C293.092 104.434 292.768 104.818 292.54 105.322C292.312 105.814 292.222 106.414 292.27 107.122C292.21 107.782 292.3 108.358 292.54 108.85C292.792 109.342 293.14 109.726 293.584 110.002C294.04 110.278 294.556 110.416 295.132 110.416C295.72 110.416 296.218 110.284 296.626 110.02C297.046 109.756 297.376 109.414 297.616 108.994L299.272 109.804C299.08 110.26 298.78 110.674 298.372 111.046C297.976 111.406 297.496 111.694 296.932 111.91C296.38 112.114 295.774 112.216 295.114 112.216ZM306.279 115.96C305.571 115.96 304.917 115.846 304.317 115.618C303.717 115.39 303.201 115.072 302.769 114.664C302.337 114.268 302.013 113.8 301.797 113.26L303.669 112.486C303.837 112.942 304.143 113.32 304.587 113.62C305.043 113.92 305.601 114.07 306.261 114.07C306.777 114.07 307.239 113.968 307.647 113.764C308.055 113.572 308.379 113.284 308.619 112.9C308.859 112.528 308.979 112.078 308.979 111.55V109.354L309.339 109.768C309.003 110.392 308.535 110.866 307.935 111.19C307.347 111.514 306.681 111.676 305.937 111.676C305.037 111.676 304.227 111.466 303.507 111.046C302.787 110.626 302.217 110.05 301.797 109.318C301.389 108.586 301.185 107.764 301.185 106.852C301.185 105.928 301.389 105.106 301.797 104.386C302.217 103.666 302.781 103.096 303.489 102.676C304.197 102.256 305.007 102.046 305.919 102.046C306.663 102.046 307.323 102.208 307.899 102.532C308.487 102.844 308.967 103.3 309.339 103.9L309.069 104.404V102.262H310.995V111.55C310.995 112.39 310.791 113.14 310.383 113.8C309.987 114.472 309.435 115 308.727 115.384C308.019 115.768 307.203 115.96 306.279 115.96ZM306.171 109.786C306.711 109.786 307.191 109.66 307.611 109.408C308.031 109.144 308.361 108.796 308.601 108.364C308.853 107.92 308.979 107.422 308.979 106.87C308.979 106.318 308.853 105.82 308.601 105.376C308.349 104.932 308.013 104.584 307.593 104.332C307.173 104.068 306.699 103.936 306.171 103.936C305.619 103.936 305.127 104.068 304.695 104.332C304.263 104.584 303.921 104.932 303.669 105.376C303.429 105.808 303.309 106.306 303.309 106.87C303.309 107.41 303.429 107.902 303.669 108.346C303.921 108.79 304.263 109.144 304.695 109.408C305.127 109.66 305.619 109.786 306.171 109.786ZM313.375 112V102.262H315.41V112H313.375ZM313.375 100.93V98.59H315.41V100.93H313.375ZM321.388 112.216C320.392 112.216 319.516 111.97 318.76 111.478C318.016 110.986 317.494 110.326 317.194 109.498L318.76 108.76C319.024 109.312 319.384 109.75 319.84 110.074C320.308 110.398 320.824 110.56 321.388 110.56C321.868 110.56 322.258 110.452 322.558 110.236C322.858 110.02 323.008 109.726 323.008 109.354C323.008 109.114 322.942 108.922 322.81 108.778C322.678 108.622 322.51 108.496 322.306 108.4C322.114 108.304 321.916 108.232 321.712 108.184L320.182 107.752C319.342 107.512 318.712 107.152 318.292 106.672C317.884 106.18 317.68 105.61 317.68 104.962C317.68 104.374 317.83 103.864 318.13 103.432C318.43 102.988 318.844 102.646 319.372 102.406C319.9 102.166 320.494 102.046 321.154 102.046C322.042 102.046 322.834 102.268 323.53 102.712C324.226 103.144 324.718 103.75 325.006 104.53L323.44 105.268C323.248 104.8 322.942 104.428 322.522 104.152C322.114 103.876 321.652 103.738 321.136 103.738C320.692 103.738 320.338 103.846 320.074 104.062C319.81 104.266 319.678 104.536 319.678 104.872C319.678 105.1 319.738 105.292 319.858 105.448C319.978 105.592 320.134 105.712 320.326 105.808C320.518 105.892 320.716 105.964 320.92 106.024L322.504 106.492C323.308 106.72 323.926 107.08 324.358 107.572C324.79 108.052 325.006 108.628 325.006 109.3C325.006 109.876 324.85 110.386 324.538 110.83C324.238 111.262 323.818 111.604 323.278 111.856C322.738 112.096 322.108 112.216 321.388 112.216ZM331.211 112.108C330.191 112.108 329.399 111.82 328.835 111.244C328.271 110.668 327.989 109.858 327.989 108.814V104.098H326.279V102.262H326.549C327.005 102.262 327.359 102.13 327.611 101.866C327.863 101.602 327.989 101.242 327.989 100.786V100.03H330.023V102.262H332.237V104.098H330.023V108.724C330.023 109.06 330.077 109.348 330.185 109.588C330.293 109.816 330.467 109.996 330.707 110.128C330.947 110.248 331.259 110.308 331.643 110.308C331.739 110.308 331.847 110.302 331.967 110.29C332.087 110.278 332.201 110.266 332.309 110.254V112C332.141 112.024 331.955 112.048 331.751 112.072C331.547 112.096 331.367 112.108 331.211 112.108ZM338.69 112.216C337.718 112.216 336.854 111.994 336.098 111.55C335.354 111.094 334.772 110.482 334.352 109.714C333.932 108.934 333.722 108.064 333.722 107.104C333.722 106.12 333.932 105.25 334.352 104.494C334.784 103.738 335.36 103.144 336.08 102.712C336.8 102.268 337.616 102.046 338.528 102.046C339.26 102.046 339.914 102.172 340.49 102.424C341.066 102.676 341.552 103.024 341.948 103.468C342.344 103.9 342.644 104.398 342.848 104.962C343.064 105.526 343.172 106.126 343.172 106.762C343.172 106.918 343.166 107.08 343.154 107.248C343.142 107.416 343.118 107.572 343.082 107.716H335.324V106.096H341.93L340.958 106.834C341.078 106.246 341.036 105.724 340.832 105.268C340.64 104.8 340.34 104.434 339.932 104.17C339.536 103.894 339.068 103.756 338.528 103.756C337.988 103.756 337.508 103.894 337.088 104.17C336.668 104.434 336.344 104.818 336.116 105.322C335.888 105.814 335.798 106.414 335.846 107.122C335.786 107.782 335.876 108.358 336.116 108.85C336.368 109.342 336.716 109.726 337.16 110.002C337.616 110.278 338.132 110.416 338.708 110.416C339.296 110.416 339.794 110.284 340.202 110.02C340.622 109.756 340.952 109.414 341.192 108.994L342.848 109.804C342.656 110.26 342.356 110.674 341.948 111.046C341.552 111.406 341.072 111.694 340.508 111.91C339.956 112.114 339.35 112.216 338.69 112.216ZM345.157 112V102.262H347.101V104.224L346.921 103.936C347.137 103.3 347.485 102.844 347.965 102.568C348.445 102.28 349.021 102.136 349.693 102.136H350.287V103.99H349.441C348.769 103.99 348.223 104.2 347.803 104.62C347.395 105.028 347.191 105.616 347.191 106.384V112H345.157ZM355.278 112.216C354.282 112.216 353.406 111.97 352.65 111.478C351.906 110.986 351.384 110.326 351.084 109.498L352.65 108.76C352.914 109.312 353.274 109.75 353.73 110.074C354.198 110.398 354.714 110.56 355.278 110.56C355.758 110.56 356.148 110.452 356.448 110.236C356.748 110.02 356.898 109.726 356.898 109.354C356.898 109.114 356.832 108.922 356.7 108.778C356.568 108.622 356.4 108.496 356.196 108.4C356.004 108.304 355.806 108.232 355.602 108.184L354.072 107.752C353.232 107.512 352.602 107.152 352.182 106.672C351.774 106.18 351.57 105.61 351.57 104.962C351.57 104.374 351.72 103.864 352.02 103.432C352.32 102.988 352.734 102.646 353.262 102.406C353.79 102.166 354.384 102.046 355.044 102.046C355.932 102.046 356.724 102.268 357.42 102.712C358.116 103.144 358.608 103.75 358.896 104.53L357.33 105.268C357.138 104.8 356.832 104.428 356.412 104.152C356.004 103.876 355.542 103.738 355.026 103.738C354.582 103.738 354.228 103.846 353.964 104.062C353.7 104.266 353.568 104.536 353.568 104.872C353.568 105.1 353.628 105.292 353.748 105.448C353.868 105.592 354.024 105.712 354.216 105.808C354.408 105.892 354.606 105.964 354.81 106.024L356.394 106.492C357.198 106.72 357.816 107.08 358.248 107.572C358.68 108.052 358.896 108.628 358.896 109.3C358.896 109.876 358.74 110.386 358.428 110.83C358.128 111.262 357.708 111.604 357.168 111.856C356.628 112.096 355.998 112.216 355.278 112.216ZM366.952 112.216C366.292 112.216 365.71 112.102 365.206 111.874C364.714 111.634 364.33 111.31 364.054 110.902C363.778 110.482 363.64 109.99 363.64 109.426C363.64 108.898 363.754 108.424 363.982 108.004C364.222 107.584 364.588 107.23 365.08 106.942C365.572 106.654 366.19 106.45 366.934 106.33L370.318 105.772V107.374L367.33 107.896C366.79 107.992 366.394 108.166 366.142 108.418C365.89 108.658 365.764 108.97 365.764 109.354C365.764 109.726 365.902 110.032 366.178 110.272C366.466 110.5 366.832 110.614 367.276 110.614C367.828 110.614 368.308 110.494 368.716 110.254C369.136 110.014 369.46 109.696 369.688 109.3C369.916 108.892 370.03 108.442 370.03 107.95V105.448C370.03 104.968 369.85 104.578 369.49 104.278C369.142 103.966 368.674 103.81 368.086 103.81C367.546 103.81 367.072 103.954 366.664 104.242C366.268 104.518 365.974 104.878 365.782 105.322L364.09 104.476C364.27 103.996 364.564 103.576 364.972 103.216C365.38 102.844 365.854 102.556 366.394 102.352C366.946 102.148 367.528 102.046 368.14 102.046C368.908 102.046 369.586 102.19 370.174 102.478C370.774 102.766 371.236 103.168 371.56 103.684C371.896 104.188 372.064 104.776 372.064 105.448V112H370.12V110.236L370.534 110.29C370.306 110.686 370.012 111.028 369.652 111.316C369.304 111.604 368.902 111.826 368.446 111.982C368.002 112.138 367.504 112.216 366.952 112.216ZM374.442 112V102.262H376.386V104.17L376.152 103.918C376.392 103.306 376.776 102.844 377.304 102.532C377.832 102.208 378.444 102.046 379.14 102.046C379.86 102.046 380.496 102.202 381.048 102.514C381.6 102.826 382.032 103.258 382.344 103.81C382.656 104.362 382.812 104.998 382.812 105.718V112H380.796V106.258C380.796 105.766 380.706 105.352 380.526 105.016C380.346 104.668 380.088 104.404 379.752 104.224C379.428 104.032 379.056 103.936 378.636 103.936C378.216 103.936 377.838 104.032 377.502 104.224C377.178 104.404 376.926 104.668 376.746 105.016C376.566 105.364 376.476 105.778 376.476 106.258V112H374.442ZM389.489 112.216C388.553 112.216 387.713 111.994 386.969 111.55C386.237 111.094 385.655 110.482 385.223 109.714C384.803 108.946 384.593 108.082 384.593 107.122C384.593 106.162 384.809 105.298 385.241 104.53C385.673 103.762 386.255 103.156 386.987 102.712C387.719 102.268 388.547 102.046 389.471 102.046C390.251 102.046 390.941 102.202 391.541 102.514C392.141 102.826 392.615 103.258 392.963 103.81L392.657 104.278V98.374H394.673V112H392.747V110.02L392.981 110.398C392.645 110.986 392.165 111.436 391.541 111.748C390.917 112.06 390.233 112.216 389.489 112.216ZM389.687 110.326C390.251 110.326 390.755 110.188 391.199 109.912C391.655 109.636 392.009 109.258 392.261 108.778C392.525 108.286 392.657 107.734 392.657 107.122C392.657 106.51 392.525 105.964 392.261 105.484C392.009 105.004 391.655 104.626 391.199 104.35C390.755 104.074 390.251 103.936 389.687 103.936C389.123 103.936 388.613 104.074 388.157 104.35C387.701 104.626 387.347 105.004 387.095 105.484C386.843 105.964 386.717 106.51 386.717 107.122C386.717 107.734 386.843 108.286 387.095 108.778C387.347 109.258 387.695 109.636 388.139 109.912C388.595 110.188 389.111 110.326 389.687 110.326ZM267.69 135V125.262H269.634V127.224L269.454 126.936C269.67 126.3 270.018 125.844 270.498 125.568C270.978 125.28 271.554 125.136 272.226 125.136H272.82V126.99H271.974C271.302 126.99 270.756 127.2 270.336 127.62C269.928 128.028 269.724 128.616 269.724 129.384V135H267.69ZM278.783 135.216C277.811 135.216 276.947 134.994 276.191 134.55C275.447 134.094 274.865 133.482 274.445 132.714C274.025 131.934 273.815 131.064 273.815 130.104C273.815 129.12 274.025 128.25 274.445 127.494C274.877 126.738 275.453 126.144 276.173 125.712C276.893 125.268 277.709 125.046 278.621 125.046C279.353 125.046 280.007 125.172 280.583 125.424C281.159 125.676 281.645 126.024 282.041 126.468C282.437 126.9 282.737 127.398 282.941 127.962C283.157 128.526 283.265 129.126 283.265 129.762C283.265 129.918 283.259 130.08 283.247 130.248C283.235 130.416 283.211 130.572 283.175 130.716H275.417V129.096H282.023L281.051 129.834C281.171 129.246 281.129 128.724 280.925 128.268C280.733 127.8 280.433 127.434 280.025 127.17C279.629 126.894 279.161 126.756 278.621 126.756C278.081 126.756 277.601 126.894 277.181 127.17C276.761 127.434 276.437 127.818 276.209 128.322C275.981 128.814 275.891 129.414 275.939 130.122C275.879 130.782 275.969 131.358 276.209 131.85C276.461 132.342 276.809 132.726 277.253 133.002C277.709 133.278 278.225 133.416 278.801 133.416C279.389 133.416 279.887 133.284 280.295 133.02C280.715 132.756 281.045 132.414 281.285 131.994L282.941 132.804C282.749 133.26 282.449 133.674 282.041 134.046C281.645 134.406 281.165 134.694 280.601 134.91C280.049 135.114 279.443 135.216 278.783 135.216ZM289.877 135.216C288.905 135.216 288.041 134.994 287.285 134.55C286.541 134.094 285.947 133.482 285.503 132.714C285.071 131.946 284.855 131.076 284.855 130.104C284.855 129.144 285.071 128.28 285.503 127.512C285.935 126.744 286.529 126.144 287.285 125.712C288.041 125.268 288.905 125.046 289.877 125.046C290.537 125.046 291.155 125.166 291.731 125.406C292.307 125.634 292.805 125.952 293.225 126.36C293.657 126.768 293.975 127.242 294.179 127.782L292.397 128.61C292.193 128.106 291.863 127.704 291.407 127.404C290.963 127.092 290.453 126.936 289.877 126.936C289.325 126.936 288.827 127.074 288.383 127.35C287.951 127.614 287.609 127.992 287.357 128.484C287.105 128.964 286.979 129.51 286.979 130.122C286.979 130.734 287.105 131.286 287.357 131.778C287.609 132.258 287.951 132.636 288.383 132.912C288.827 133.188 289.325 133.326 289.877 133.326C290.465 133.326 290.975 133.176 291.407 132.876C291.851 132.564 292.181 132.15 292.397 131.634L294.179 132.48C293.987 132.996 293.675 133.464 293.243 133.884C292.823 134.292 292.325 134.616 291.749 134.856C291.173 135.096 290.549 135.216 289.877 135.216ZM296.167 135V121.374H298.201V127.17L297.877 126.918C298.117 126.306 298.501 125.844 299.029 125.532C299.557 125.208 300.169 125.046 300.865 125.046C301.585 125.046 302.221 125.202 302.773 125.514C303.325 125.826 303.757 126.258 304.069 126.81C304.381 127.362 304.537 127.992 304.537 128.7V135H302.521V129.258C302.521 128.766 302.425 128.352 302.233 128.016C302.053 127.668 301.801 127.404 301.477 127.224C301.153 127.032 300.781 126.936 300.361 126.936C299.953 126.936 299.581 127.032 299.245 127.224C298.921 127.404 298.663 127.668 298.471 128.016C298.291 128.364 298.201 128.778 298.201 129.258V135H296.167ZM309.629 135.216C308.969 135.216 308.387 135.102 307.883 134.874C307.391 134.634 307.007 134.31 306.731 133.902C306.455 133.482 306.317 132.99 306.317 132.426C306.317 131.898 306.431 131.424 306.659 131.004C306.899 130.584 307.265 130.23 307.757 129.942C308.249 129.654 308.867 129.45 309.611 129.33L312.995 128.772V130.374L310.007 130.896C309.467 130.992 309.071 131.166 308.819 131.418C308.567 131.658 308.441 131.97 308.441 132.354C308.441 132.726 308.579 133.032 308.855 133.272C309.143 133.5 309.509 133.614 309.953 133.614C310.505 133.614 310.985 133.494 311.393 133.254C311.813 133.014 312.137 132.696 312.365 132.3C312.593 131.892 312.707 131.442 312.707 130.95V128.448C312.707 127.968 312.527 127.578 312.167 127.278C311.819 126.966 311.351 126.81 310.763 126.81C310.223 126.81 309.749 126.954 309.341 127.242C308.945 127.518 308.651 127.878 308.459 128.322L306.767 127.476C306.947 126.996 307.241 126.576 307.649 126.216C308.057 125.844 308.531 125.556 309.071 125.352C309.623 125.148 310.205 125.046 310.817 125.046C311.585 125.046 312.263 125.19 312.851 125.478C313.451 125.766 313.913 126.168 314.237 126.684C314.573 127.188 314.741 127.776 314.741 128.448V135H312.797V133.236L313.211 133.29C312.983 133.686 312.689 134.028 312.329 134.316C311.981 134.604 311.579 134.826 311.123 134.982C310.679 135.138 310.181 135.216 309.629 135.216ZM317.12 135V125.262H319.064V127.224L318.884 126.936C319.1 126.3 319.448 125.844 319.928 125.568C320.408 125.28 320.984 125.136 321.656 125.136H322.25V126.99H321.404C320.732 126.99 320.186 127.2 319.766 127.62C319.358 128.028 319.154 128.616 319.154 129.384V135H317.12ZM328.339 138.96C327.631 138.96 326.977 138.846 326.377 138.618C325.777 138.39 325.261 138.072 324.829 137.664C324.397 137.268 324.073 136.8 323.857 136.26L325.729 135.486C325.897 135.942 326.203 136.32 326.647 136.62C327.103 136.92 327.661 137.07 328.321 137.07C328.837 137.07 329.299 136.968 329.707 136.764C330.115 136.572 330.439 136.284 330.679 135.9C330.919 135.528 331.039 135.078 331.039 134.55V132.354L331.399 132.768C331.063 133.392 330.595 133.866 329.995 134.19C329.407 134.514 328.741 134.676 327.997 134.676C327.097 134.676 326.287 134.466 325.567 134.046C324.847 133.626 324.277 133.05 323.857 132.318C323.449 131.586 323.245 130.764 323.245 129.852C323.245 128.928 323.449 128.106 323.857 127.386C324.277 126.666 324.841 126.096 325.549 125.676C326.257 125.256 327.067 125.046 327.979 125.046C328.723 125.046 329.383 125.208 329.959 125.532C330.547 125.844 331.027 126.3 331.399 126.9L331.129 127.404V125.262H333.055V134.55C333.055 135.39 332.851 136.14 332.443 136.8C332.047 137.472 331.495 138 330.787 138.384C330.079 138.768 329.263 138.96 328.339 138.96ZM328.231 132.786C328.771 132.786 329.251 132.66 329.671 132.408C330.091 132.144 330.421 131.796 330.661 131.364C330.913 130.92 331.039 130.422 331.039 129.87C331.039 129.318 330.913 128.82 330.661 128.376C330.409 127.932 330.073 127.584 329.653 127.332C329.233 127.068 328.759 126.936 328.231 126.936C327.679 126.936 327.187 127.068 326.755 127.332C326.323 127.584 325.981 127.932 325.729 128.376C325.489 128.808 325.369 129.306 325.369 129.87C325.369 130.41 325.489 130.902 325.729 131.346C325.981 131.79 326.323 132.144 326.755 132.408C327.187 132.66 327.679 132.786 328.231 132.786ZM340.008 135.216C339.036 135.216 338.172 134.994 337.416 134.55C336.672 134.094 336.09 133.482 335.67 132.714C335.25 131.934 335.04 131.064 335.04 130.104C335.04 129.12 335.25 128.25 335.67 127.494C336.102 126.738 336.678 126.144 337.398 125.712C338.118 125.268 338.934 125.046 339.846 125.046C340.578 125.046 341.232 125.172 341.808 125.424C342.384 125.676 342.87 126.024 343.266 126.468C343.662 126.9 343.962 127.398 344.166 127.962C344.382 128.526 344.49 129.126 344.49 129.762C344.49 129.918 344.484 130.08 344.472 130.248C344.46 130.416 344.436 130.572 344.4 130.716H336.642V129.096H343.248L342.276 129.834C342.396 129.246 342.354 128.724 342.15 128.268C341.958 127.8 341.658 127.434 341.25 127.17C340.854 126.894 340.386 126.756 339.846 126.756C339.306 126.756 338.826 126.894 338.406 127.17C337.986 127.434 337.662 127.818 337.434 128.322C337.206 128.814 337.116 129.414 337.164 130.122C337.104 130.782 337.194 131.358 337.434 131.85C337.686 132.342 338.034 132.726 338.478 133.002C338.934 133.278 339.45 133.416 340.026 133.416C340.614 133.416 341.112 133.284 341.52 133.02C341.94 132.756 342.27 132.414 342.51 131.994L344.166 132.804C343.974 133.26 343.674 133.674 343.266 134.046C342.87 134.406 342.39 134.694 341.826 134.91C341.274 135.114 340.668 135.216 340.008 135.216ZM350.075 135.216C349.079 135.216 348.203 134.97 347.447 134.478C346.703 133.986 346.181 133.326 345.881 132.498L347.447 131.76C347.711 132.312 348.071 132.75 348.527 133.074C348.995 133.398 349.511 133.56 350.075 133.56C350.555 133.56 350.945 133.452 351.245 133.236C351.545 133.02 351.695 132.726 351.695 132.354C351.695 132.114 351.629 131.922 351.497 131.778C351.365 131.622 351.197 131.496 350.993 131.4C350.801 131.304 350.603 131.232 350.399 131.184L348.869 130.752C348.029 130.512 347.399 130.152 346.979 129.672C346.571 129.18 346.367 128.61 346.367 127.962C346.367 127.374 346.517 126.864 346.817 126.432C347.117 125.988 347.531 125.646 348.059 125.406C348.587 125.166 349.181 125.046 349.841 125.046C350.729 125.046 351.521 125.268 352.217 125.712C352.913 126.144 353.405 126.75 353.693 127.53L352.127 128.268C351.935 127.8 351.629 127.428 351.209 127.152C350.801 126.876 350.339 126.738 349.823 126.738C349.379 126.738 349.025 126.846 348.761 127.062C348.497 127.266 348.365 127.536 348.365 127.872C348.365 128.1 348.425 128.292 348.545 128.448C348.665 128.592 348.821 128.712 349.013 128.808C349.205 128.892 349.403 128.964 349.607 129.024L351.191 129.492C351.995 129.72 352.613 130.08 353.045 130.572C353.477 131.052 353.693 131.628 353.693 132.3C353.693 132.876 353.537 133.386 353.225 133.83C352.925 134.262 352.505 134.604 351.965 134.856C351.425 135.096 350.795 135.216 350.075 135.216Z" fill="white"/>
<path d="M456.905 112V105.952L452.315 98.59H454.709L458.381 104.548H457.535L461.189 98.59H463.583L459.011 105.952V112H456.905ZM467.97 112.216C467.034 112.216 466.176 111.994 465.396 111.55C464.628 111.106 464.016 110.5 463.56 109.732C463.104 108.964 462.876 108.094 462.876 107.122C462.876 106.138 463.104 105.268 463.56 104.512C464.016 103.744 464.628 103.144 465.396 102.712C466.164 102.268 467.022 102.046 467.97 102.046C468.93 102.046 469.788 102.268 470.544 102.712C471.312 103.144 471.918 103.744 472.362 104.512C472.818 105.268 473.046 106.138 473.046 107.122C473.046 108.106 472.818 108.982 472.362 109.75C471.906 110.518 471.294 111.124 470.526 111.568C469.758 112 468.906 112.216 467.97 112.216ZM467.97 110.326C468.546 110.326 469.056 110.188 469.5 109.912C469.944 109.636 470.292 109.258 470.544 108.778C470.808 108.286 470.94 107.734 470.94 107.122C470.94 106.51 470.808 105.964 470.544 105.484C470.292 105.004 469.944 104.626 469.5 104.35C469.056 104.074 468.546 103.936 467.97 103.936C467.406 103.936 466.896 104.074 466.44 104.35C465.996 104.626 465.642 105.004 465.378 105.484C465.126 105.964 465 106.51 465 107.122C465 107.734 465.126 108.286 465.378 108.778C465.642 109.258 465.996 109.636 466.44 109.912C466.896 110.188 467.406 110.326 467.97 110.326ZM478.506 112.216C477.774 112.216 477.132 112.054 476.58 111.73C476.028 111.394 475.596 110.932 475.284 110.344C474.984 109.744 474.834 109.054 474.834 108.274V102.262H476.868V108.094C476.868 108.538 476.958 108.928 477.138 109.264C477.318 109.6 477.57 109.864 477.894 110.056C478.218 110.236 478.59 110.326 479.01 110.326C479.442 110.326 479.82 110.23 480.144 110.038C480.468 109.846 480.72 109.576 480.9 109.228C481.092 108.88 481.188 108.472 481.188 108.004V102.262H483.204V112H481.278V110.092L481.494 110.344C481.266 110.944 480.888 111.406 480.36 111.73C479.832 112.054 479.214 112.216 478.506 112.216ZM493.297 112.216C492.325 112.216 491.461 111.994 490.705 111.55C489.961 111.094 489.379 110.482 488.959 109.714C488.539 108.934 488.329 108.064 488.329 107.104C488.329 106.12 488.539 105.25 488.959 104.494C489.391 103.738 489.967 103.144 490.687 102.712C491.407 102.268 492.223 102.046 493.135 102.046C493.867 102.046 494.521 102.172 495.097 102.424C495.673 102.676 496.159 103.024 496.555 103.468C496.951 103.9 497.251 104.398 497.455 104.962C497.671 105.526 497.779 106.126 497.779 106.762C497.779 106.918 497.773 107.08 497.761 107.248C497.749 107.416 497.725 107.572 497.689 107.716H489.931V106.096H496.537L495.565 106.834C495.685 106.246 495.643 105.724 495.439 105.268C495.247 104.8 494.947 104.434 494.539 104.17C494.143 103.894 493.675 103.756 493.135 103.756C492.595 103.756 492.115 103.894 491.695 104.17C491.275 104.434 490.951 104.818 490.723 105.322C490.495 105.814 490.405 106.414 490.453 107.122C490.393 107.782 490.483 108.358 490.723 108.85C490.975 109.342 491.323 109.726 491.767 110.002C492.223 110.278 492.739 110.416 493.315 110.416C493.903 110.416 494.401 110.284 494.809 110.02C495.229 109.756 495.559 109.414 495.799 108.994L497.455 109.804C497.263 110.26 496.963 110.674 496.555 111.046C496.159 111.406 495.679 111.694 495.115 111.91C494.563 112.114 493.957 112.216 493.297 112.216ZM502.592 112.216C501.932 112.216 501.35 112.102 500.846 111.874C500.354 111.634 499.97 111.31 499.694 110.902C499.418 110.482 499.28 109.99 499.28 109.426C499.28 108.898 499.394 108.424 499.622 108.004C499.862 107.584 500.228 107.23 500.72 106.942C501.212 106.654 501.83 106.45 502.574 106.33L505.958 105.772V107.374L502.97 107.896C502.43 107.992 502.034 108.166 501.782 108.418C501.53 108.658 501.404 108.97 501.404 109.354C501.404 109.726 501.542 110.032 501.818 110.272C502.106 110.5 502.472 110.614 502.916 110.614C503.468 110.614 503.948 110.494 504.356 110.254C504.776 110.014 505.1 109.696 505.328 109.3C505.556 108.892 505.67 108.442 505.67 107.95V105.448C505.67 104.968 505.49 104.578 505.13 104.278C504.782 103.966 504.314 103.81 503.726 103.81C503.186 103.81 502.712 103.954 502.304 104.242C501.908 104.518 501.614 104.878 501.422 105.322L499.73 104.476C499.91 103.996 500.204 103.576 500.612 103.216C501.02 102.844 501.494 102.556 502.034 102.352C502.586 102.148 503.168 102.046 503.78 102.046C504.548 102.046 505.226 102.19 505.814 102.478C506.414 102.766 506.876 103.168 507.2 103.684C507.536 104.188 507.704 104.776 507.704 105.448V112H505.76V110.236L506.174 110.29C505.946 110.686 505.652 111.028 505.292 111.316C504.944 111.604 504.542 111.826 504.086 111.982C503.642 112.138 503.144 112.216 502.592 112.216ZM510.083 112V102.262H512.027V104.224L511.847 103.936C512.063 103.3 512.411 102.844 512.891 102.568C513.371 102.28 513.947 102.136 514.619 102.136H515.213V103.99H514.367C513.695 103.99 513.149 104.2 512.729 104.62C512.321 105.028 512.117 105.616 512.117 106.384V112H510.083ZM516.604 112V102.262H518.548V104.17L518.314 103.918C518.554 103.306 518.938 102.844 519.466 102.532C519.994 102.208 520.606 102.046 521.302 102.046C522.022 102.046 522.658 102.202 523.21 102.514C523.762 102.826 524.194 103.258 524.506 103.81C524.818 104.362 524.974 104.998 524.974 105.718V112H522.958V106.258C522.958 105.766 522.868 105.352 522.688 105.016C522.508 104.668 522.25 104.404 521.914 104.224C521.59 104.032 521.218 103.936 520.798 103.936C520.378 103.936 520 104.032 519.664 104.224C519.34 104.404 519.088 104.668 518.908 105.016C518.728 105.364 518.638 105.778 518.638 106.258V112H516.604ZM530.297 112V102.262H532.241V104.224L532.061 103.936C532.277 103.3 532.625 102.844 533.105 102.568C533.585 102.28 534.161 102.136 534.833 102.136H535.427V103.99H534.581C533.909 103.99 533.363 104.2 532.943 104.62C532.535 105.028 532.331 105.616 532.331 106.384V112H530.297ZM541.391 112.216C540.419 112.216 539.555 111.994 538.799 111.55C538.055 111.094 537.473 110.482 537.053 109.714C536.633 108.934 536.423 108.064 536.423 107.104C536.423 106.12 536.633 105.25 537.053 104.494C537.485 103.738 538.061 103.144 538.781 102.712C539.501 102.268 540.317 102.046 541.229 102.046C541.961 102.046 542.615 102.172 543.191 102.424C543.767 102.676 544.253 103.024 544.649 103.468C545.045 103.9 545.345 104.398 545.549 104.962C545.765 105.526 545.873 106.126 545.873 106.762C545.873 106.918 545.867 107.08 545.855 107.248C545.843 107.416 545.819 107.572 545.783 107.716H538.025V106.096H544.631L543.659 106.834C543.779 106.246 543.737 105.724 543.533 105.268C543.341 104.8 543.041 104.434 542.633 104.17C542.237 103.894 541.769 103.756 541.229 103.756C540.689 103.756 540.209 103.894 539.789 104.17C539.369 104.434 539.045 104.818 538.817 105.322C538.589 105.814 538.499 106.414 538.547 107.122C538.487 107.782 538.577 108.358 538.817 108.85C539.069 109.342 539.417 109.726 539.861 110.002C540.317 110.278 540.833 110.416 541.409 110.416C541.997 110.416 542.495 110.284 542.903 110.02C543.323 109.756 543.653 109.414 543.893 108.994L545.549 109.804C545.357 110.26 545.057 110.674 544.649 111.046C544.253 111.406 543.773 111.694 543.209 111.91C542.657 112.114 542.051 112.216 541.391 112.216ZM550.686 112.216C550.026 112.216 549.444 112.102 548.94 111.874C548.448 111.634 548.064 111.31 547.788 110.902C547.512 110.482 547.374 109.99 547.374 109.426C547.374 108.898 547.488 108.424 547.716 108.004C547.956 107.584 548.322 107.23 548.814 106.942C549.306 106.654 549.924 106.45 550.668 106.33L554.052 105.772V107.374L551.064 107.896C550.524 107.992 550.128 108.166 549.876 108.418C549.624 108.658 549.498 108.97 549.498 109.354C549.498 109.726 549.636 110.032 549.912 110.272C550.2 110.5 550.566 110.614 551.01 110.614C551.562 110.614 552.042 110.494 552.45 110.254C552.87 110.014 553.194 109.696 553.422 109.3C553.65 108.892 553.764 108.442 553.764 107.95V105.448C553.764 104.968 553.584 104.578 553.224 104.278C552.876 103.966 552.408 103.81 551.82 103.81C551.28 103.81 550.806 103.954 550.398 104.242C550.002 104.518 549.708 104.878 549.516 105.322L547.824 104.476C548.004 103.996 548.298 103.576 548.706 103.216C549.114 102.844 549.588 102.556 550.128 102.352C550.68 102.148 551.262 102.046 551.874 102.046C552.642 102.046 553.32 102.19 553.908 102.478C554.508 102.766 554.97 103.168 555.294 103.684C555.63 104.188 555.798 104.776 555.798 105.448V112H553.854V110.236L554.268 110.29C554.04 110.686 553.746 111.028 553.386 111.316C553.038 111.604 552.636 111.826 552.18 111.982C551.736 112.138 551.238 112.216 550.686 112.216ZM558.176 112V98.374H560.21V112H558.176ZM562.894 108.022V106.222H570.094V108.022H562.894ZM576.996 112.108C575.976 112.108 575.184 111.82 574.62 111.244C574.056 110.668 573.774 109.858 573.774 108.814V104.098H572.064V102.262H572.334C572.79 102.262 573.144 102.13 573.396 101.866C573.648 101.602 573.774 101.242 573.774 100.786V100.03H575.808V102.262H578.022V104.098H575.808V108.724C575.808 109.06 575.862 109.348 575.97 109.588C576.078 109.816 576.252 109.996 576.492 110.128C576.732 110.248 577.044 110.308 577.428 110.308C577.524 110.308 577.632 110.302 577.752 110.29C577.872 110.278 577.986 110.266 578.094 110.254V112C577.926 112.024 577.74 112.048 577.536 112.072C577.332 112.096 577.152 112.108 576.996 112.108ZM580.079 112V102.262H582.113V112H580.079ZM580.079 100.93V98.59H582.113V100.93H580.079ZM584.491 112V102.262H586.435V104.368L586.183 104.044C586.387 103.384 586.759 102.886 587.299 102.55C587.839 102.214 588.457 102.046 589.153 102.046C589.933 102.046 590.623 102.256 591.223 102.676C591.835 103.084 592.243 103.63 592.447 104.314L591.871 104.368C592.159 103.588 592.597 103.006 593.185 102.622C593.785 102.238 594.469 102.046 595.237 102.046C595.909 102.046 596.515 102.202 597.055 102.514C597.607 102.826 598.045 103.258 598.369 103.81C598.693 104.362 598.855 104.992 598.855 105.7V112H596.821V106.258C596.821 105.766 596.731 105.352 596.551 105.016C596.383 104.668 596.143 104.404 595.831 104.224C595.531 104.032 595.177 103.936 594.769 103.936C594.361 103.936 594.001 104.032 593.689 104.224C593.377 104.404 593.131 104.668 592.951 105.016C592.771 105.364 592.681 105.778 592.681 106.258V112H590.665V106.258C590.665 105.766 590.575 105.352 590.395 105.016C590.227 104.668 589.987 104.404 589.675 104.224C589.375 104.032 589.015 103.936 588.595 103.936C588.187 103.936 587.827 104.032 587.515 104.224C587.203 104.404 586.957 104.668 586.777 105.016C586.609 105.364 586.525 105.778 586.525 106.258V112H584.491ZM605.604 112.216C604.632 112.216 603.768 111.994 603.012 111.55C602.268 111.094 601.686 110.482 601.266 109.714C600.846 108.934 600.636 108.064 600.636 107.104C600.636 106.12 600.846 105.25 601.266 104.494C601.698 103.738 602.274 103.144 602.994 102.712C603.714 102.268 604.53 102.046 605.442 102.046C606.174 102.046 606.828 102.172 607.404 102.424C607.98 102.676 608.466 103.024 608.862 103.468C609.258 103.9 609.558 104.398 609.762 104.962C609.978 105.526 610.086 106.126 610.086 106.762C610.086 106.918 610.08 107.08 610.068 107.248C610.056 107.416 610.032 107.572 609.996 107.716H602.238V106.096H608.844L607.872 106.834C607.992 106.246 607.95 105.724 607.746 105.268C607.554 104.8 607.254 104.434 606.846 104.17C606.45 103.894 605.982 103.756 605.442 103.756C604.902 103.756 604.422 103.894 604.002 104.17C603.582 104.434 603.258 104.818 603.03 105.322C602.802 105.814 602.712 106.414 602.76 107.122C602.7 107.782 602.79 108.358 603.03 108.85C603.282 109.342 603.63 109.726 604.074 110.002C604.53 110.278 605.046 110.416 605.622 110.416C606.21 110.416 606.708 110.284 607.116 110.02C607.536 109.756 607.866 109.414 608.106 108.994L609.762 109.804C609.57 110.26 609.27 110.674 608.862 111.046C608.466 111.406 607.986 111.694 607.422 111.91C606.87 112.114 606.264 112.216 605.604 112.216ZM484.659 135.216C483.687 135.216 482.823 134.994 482.067 134.55C481.323 134.094 480.729 133.482 480.285 132.714C479.853 131.946 479.637 131.076 479.637 130.104C479.637 129.144 479.853 128.28 480.285 127.512C480.717 126.744 481.311 126.144 482.067 125.712C482.823 125.268 483.687 125.046 484.659 125.046C485.319 125.046 485.937 125.166 486.513 125.406C487.089 125.634 487.587 125.952 488.007 126.36C488.439 126.768 488.757 127.242 488.961 127.782L487.179 128.61C486.975 128.106 486.645 127.704 486.189 127.404C485.745 127.092 485.235 126.936 484.659 126.936C484.107 126.936 483.609 127.074 483.165 127.35C482.733 127.614 482.391 127.992 482.139 128.484C481.887 128.964 481.761 129.51 481.761 130.122C481.761 130.734 481.887 131.286 482.139 131.778C482.391 132.258 482.733 132.636 483.165 132.912C483.609 133.188 484.107 133.326 484.659 133.326C485.247 133.326 485.757 133.176 486.189 132.876C486.633 132.564 486.963 132.15 487.179 131.634L488.961 132.48C488.769 132.996 488.457 133.464 488.025 133.884C487.605 134.292 487.107 134.616 486.531 134.856C485.955 135.096 485.331 135.216 484.659 135.216ZM495.647 135.216C494.711 135.216 493.853 134.994 493.073 134.55C492.305 134.106 491.693 133.5 491.237 132.732C490.781 131.964 490.553 131.094 490.553 130.122C490.553 129.138 490.781 128.268 491.237 127.512C491.693 126.744 492.305 126.144 493.073 125.712C493.841 125.268 494.699 125.046 495.647 125.046C496.607 125.046 497.465 125.268 498.221 125.712C498.989 126.144 499.595 126.744 500.039 127.512C500.495 128.268 500.723 129.138 500.723 130.122C500.723 131.106 500.495 131.982 500.039 132.75C499.583 133.518 498.971 134.124 498.203 134.568C497.435 135 496.583 135.216 495.647 135.216ZM495.647 133.326C496.223 133.326 496.733 133.188 497.177 132.912C497.621 132.636 497.969 132.258 498.221 131.778C498.485 131.286 498.617 130.734 498.617 130.122C498.617 129.51 498.485 128.964 498.221 128.484C497.969 128.004 497.621 127.626 497.177 127.35C496.733 127.074 496.223 126.936 495.647 126.936C495.083 126.936 494.573 127.074 494.117 127.35C493.673 127.626 493.319 128.004 493.055 128.484C492.803 128.964 492.677 129.51 492.677 130.122C492.677 130.734 492.803 131.286 493.055 131.778C493.319 132.258 493.673 132.636 494.117 132.912C494.573 133.188 495.083 133.326 495.647 133.326ZM502.709 135V125.262H504.653V127.368L504.401 127.044C504.605 126.384 504.977 125.886 505.517 125.55C506.057 125.214 506.675 125.046 507.371 125.046C508.151 125.046 508.841 125.256 509.441 125.676C510.053 126.084 510.461 126.63 510.665 127.314L510.089 127.368C510.377 126.588 510.815 126.006 511.403 125.622C512.003 125.238 512.687 125.046 513.455 125.046C514.127 125.046 514.733 125.202 515.273 125.514C515.825 125.826 516.263 126.258 516.587 126.81C516.911 127.362 517.073 127.992 517.073 128.7V135H515.039V129.258C515.039 128.766 514.949 128.352 514.769 128.016C514.601 127.668 514.361 127.404 514.049 127.224C513.749 127.032 513.395 126.936 512.987 126.936C512.579 126.936 512.219 127.032 511.907 127.224C511.595 127.404 511.349 127.668 511.169 128.016C510.989 128.364 510.899 128.778 510.899 129.258V135H508.883V129.258C508.883 128.766 508.793 128.352 508.613 128.016C508.445 127.668 508.205 127.404 507.893 127.224C507.593 127.032 507.233 126.936 506.813 126.936C506.405 126.936 506.045 127.032 505.733 127.224C505.421 127.404 505.175 127.668 504.995 128.016C504.827 128.364 504.743 128.778 504.743 129.258V135H502.709ZM519.25 135V125.262H521.194V127.368L520.942 127.044C521.146 126.384 521.518 125.886 522.058 125.55C522.598 125.214 523.216 125.046 523.912 125.046C524.692 125.046 525.382 125.256 525.982 125.676C526.594 126.084 527.002 126.63 527.206 127.314L526.63 127.368C526.918 126.588 527.356 126.006 527.944 125.622C528.544 125.238 529.228 125.046 529.996 125.046C530.668 125.046 531.274 125.202 531.814 125.514C532.366 125.826 532.804 126.258 533.128 126.81C533.452 127.362 533.614 127.992 533.614 128.7V135H531.58V129.258C531.58 128.766 531.49 128.352 531.31 128.016C531.142 127.668 530.902 127.404 530.59 127.224C530.29 127.032 529.936 126.936 529.528 126.936C529.12 126.936 528.76 127.032 528.448 127.224C528.136 127.404 527.89 127.668 527.71 128.016C527.53 128.364 527.44 128.778 527.44 129.258V135H525.424V129.258C525.424 128.766 525.334 128.352 525.154 128.016C524.986 127.668 524.746 127.404 524.434 127.224C524.134 127.032 523.774 126.936 523.354 126.936C522.946 126.936 522.586 127.032 522.274 127.224C521.962 127.404 521.716 127.668 521.536 128.016C521.368 128.364 521.284 128.778 521.284 129.258V135H519.25ZM535.791 135V125.262H537.825V135H535.791ZM535.791 123.93V121.59H537.825V123.93H535.791ZM543.803 135.216C542.807 135.216 541.931 134.97 541.175 134.478C540.431 133.986 539.909 133.326 539.609 132.498L541.175 131.76C541.439 132.312 541.799 132.75 542.255 133.074C542.723 133.398 543.239 133.56 543.803 133.56C544.283 133.56 544.673 133.452 544.973 133.236C545.273 133.02 545.423 132.726 545.423 132.354C545.423 132.114 545.357 131.922 545.225 131.778C545.093 131.622 544.925 131.496 544.721 131.4C544.529 131.304 544.331 131.232 544.127 131.184L542.597 130.752C541.757 130.512 541.127 130.152 540.707 129.672C540.299 129.18 540.095 128.61 540.095 127.962C540.095 127.374 540.245 126.864 540.545 126.432C540.845 125.988 541.259 125.646 541.787 125.406C542.315 125.166 542.909 125.046 543.569 125.046C544.457 125.046 545.249 125.268 545.945 125.712C546.641 126.144 547.133 126.75 547.421 127.53L545.855 128.268C545.663 127.8 545.357 127.428 544.937 127.152C544.529 126.876 544.067 126.738 543.551 126.738C543.107 126.738 542.753 126.846 542.489 127.062C542.225 127.266 542.093 127.536 542.093 127.872C542.093 128.1 542.153 128.292 542.273 128.448C542.393 128.592 542.549 128.712 542.741 128.808C542.933 128.892 543.131 128.964 543.335 129.024L544.919 129.492C545.723 129.72 546.341 130.08 546.773 130.572C547.205 131.052 547.421 131.628 547.421 132.3C547.421 132.876 547.265 133.386 546.953 133.83C546.653 134.262 546.233 134.604 545.693 134.856C545.153 135.096 544.523 135.216 543.803 135.216ZM553.014 135.216C552.018 135.216 551.142 134.97 550.386 134.478C549.642 133.986 549.12 133.326 548.82 132.498L550.386 131.76C550.65 132.312 551.01 132.75 551.466 133.074C551.934 133.398 552.45 133.56 553.014 133.56C553.494 133.56 553.884 133.452 554.184 133.236C554.484 133.02 554.634 132.726 554.634 132.354C554.634 132.114 554.568 131.922 554.436 131.778C554.304 131.622 554.136 131.496 553.932 131.4C553.74 131.304 553.542 131.232 553.338 131.184L551.808 130.752C550.968 130.512 550.338 130.152 549.918 129.672C549.51 129.18 549.306 128.61 549.306 127.962C549.306 127.374 549.456 126.864 549.756 126.432C550.056 125.988 550.47 125.646 550.998 125.406C551.526 125.166 552.12 125.046 552.78 125.046C553.668 125.046 554.46 125.268 555.156 125.712C555.852 126.144 556.344 126.75 556.632 127.53L555.066 128.268C554.874 127.8 554.568 127.428 554.148 127.152C553.74 126.876 553.278 126.738 552.762 126.738C552.318 126.738 551.964 126.846 551.7 127.062C551.436 127.266 551.304 127.536 551.304 127.872C551.304 128.1 551.364 128.292 551.484 128.448C551.604 128.592 551.76 128.712 551.952 128.808C552.144 128.892 552.342 128.964 552.546 129.024L554.13 129.492C554.934 129.72 555.552 130.08 555.984 130.572C556.416 131.052 556.632 131.628 556.632 132.3C556.632 132.876 556.476 133.386 556.164 133.83C555.864 134.262 555.444 134.604 554.904 134.856C554.364 135.096 553.734 135.216 553.014 135.216ZM558.625 135V125.262H560.659V135H558.625ZM558.625 123.93V121.59H560.659V123.93H558.625ZM567.735 135.216C566.799 135.216 565.941 134.994 565.161 134.55C564.393 134.106 563.781 133.5 563.325 132.732C562.869 131.964 562.641 131.094 562.641 130.122C562.641 129.138 562.869 128.268 563.325 127.512C563.781 126.744 564.393 126.144 565.161 125.712C565.929 125.268 566.787 125.046 567.735 125.046C568.695 125.046 569.553 125.268 570.309 125.712C571.077 126.144 571.683 126.744 572.127 127.512C572.583 128.268 572.811 129.138 572.811 130.122C572.811 131.106 572.583 131.982 572.127 132.75C571.671 133.518 571.059 134.124 570.291 134.568C569.523 135 568.671 135.216 567.735 135.216ZM567.735 133.326C568.311 133.326 568.821 133.188 569.265 132.912C569.709 132.636 570.057 132.258 570.309 131.778C570.573 131.286 570.705 130.734 570.705 130.122C570.705 129.51 570.573 128.964 570.309 128.484C570.057 128.004 569.709 127.626 569.265 127.35C568.821 127.074 568.311 126.936 567.735 126.936C567.171 126.936 566.661 127.074 566.205 127.35C565.761 127.626 565.407 128.004 565.143 128.484C564.891 128.964 564.765 129.51 564.765 130.122C564.765 130.734 564.891 131.286 565.143 131.778C565.407 132.258 565.761 132.636 566.205 132.912C566.661 133.188 567.171 133.326 567.735 133.326ZM574.796 135V125.262H576.74V127.17L576.506 126.918C576.746 126.306 577.13 125.844 577.658 125.532C578.186 125.208 578.798 125.046 579.494 125.046C580.214 125.046 580.85 125.202 581.402 125.514C581.954 125.826 582.386 126.258 582.698 126.81C583.01 127.362 583.166 127.998 583.166 128.718V135H581.15V129.258C581.15 128.766 581.06 128.352 580.88 128.016C580.7 127.668 580.442 127.404 580.106 127.224C579.782 127.032 579.41 126.936 578.99 126.936C578.57 126.936 578.192 127.032 577.856 127.224C577.532 127.404 577.28 127.668 577.1 128.016C576.92 128.364 576.83 128.778 576.83 129.258V135H574.796Z" fill="white"/>
<path d="M106 42C136.348 67.6572 207.135 112.577 261.5 51" stroke="url(#paint0_linear_2087_10)" stroke-width="3" stroke-linecap="round" stroke-dasharray="5 5"/>
<path d="M344 41.9824C374.348 16.3252 445.135 -28.5949 499.5 32.9824" stroke="url(#paint1_linear_2087_10)" stroke-width="3" stroke-linecap="round" stroke-dasharray="5 5"/>
<g filter="url(#filter0_d_2087_10)">
<rect x="49" y="14" width="67" height="68" rx="33.5" fill="#282228" shape-rendering="crispEdges"/>
<rect x="49.5" y="14.5" width="66" height="67" rx="33" stroke="url(#paint2_linear_2087_10)" shape-rendering="crispEdges"/>
<g clip-path="url(#clip0_2087_10)">
<path d="M92.5623 34.1719C92.906 34.4219 93.0467 34.7552 92.9842 35.1719L88.9842 59.1719C88.9321 59.474 88.7654 59.7083 88.4842 59.875C88.3383 59.9583 88.1769 60 87.9998 60C87.8852 60 87.7602 59.974 87.6248 59.9219L80.5467 57.0312L76.7654 61.6406C76.5779 61.8802 76.3227 62 75.9998 62C75.8644 62 75.7498 61.9792 75.656 61.9375C75.4581 61.8646 75.2993 61.7422 75.1795 61.5703C75.0597 61.3984 74.9998 61.2083 74.9998 61V55.5469L88.4998 39L71.7967 53.4531L65.6248 50.9219C65.2394 50.776 65.031 50.4896 64.9998 50.0625C64.9789 49.6458 65.1456 49.3385 65.4998 49.1406L91.4998 34.1406C91.656 34.0469 91.8227 34 91.9998 34C92.2081 34 92.3956 34.0573 92.5623 34.1719Z" fill="#50D0FF"/>
</g>
</g>
<g filter="url(#filter1_d_2087_10)">
<rect x="275" y="14" width="67" height="68" rx="33.5" fill="#282228" shape-rendering="crispEdges"/>
<rect x="275.5" y="14.5" width="66" height="67" rx="33" stroke="url(#paint3_linear_2087_10)" shape-rendering="crispEdges"/>
<path d="M313 51C308.995 51 301 52.995 301 57V60H325V57C325 52.995 317.005 51 313 51ZM299.5 45V40.5H296.5V45H292V48H296.5V52.5H299.5V48H304V45M313 48C314.591 48 316.117 47.3679 317.243 46.2426C318.368 45.1174 319 43.5913 319 42C319 40.4087 318.368 38.8826 317.243 37.7574C316.117 36.6321 314.591 36 313 36C311.409 36 309.883 36.6321 308.757 37.7574C307.632 38.8826 307 40.4087 307 42C307 43.5913 307.632 45.1174 308.757 46.2426C309.883 47.3679 311.409 48 313 48Z" fill="#50D0FF"/>
</g>
<g filter="url(#filter2_d_2087_10)">
<rect x="501" y="16" width="67" height="68" rx="33.5" fill="#282228" shape-rendering="crispEdges"/>
<rect x="501.5" y="16.5" width="66" height="67" rx="33" stroke="url(#paint4_linear_2087_10)" shape-rendering="crispEdges"/>
<path fill-rule="evenodd" clip-rule="evenodd" d="M534.5 65.75C536.568 65.75 538.616 65.3426 540.527 64.5511C542.438 63.7596 544.174 62.5995 545.637 61.1369C547.099 59.6744 548.26 57.9381 549.051 56.0273C549.843 54.1164 550.25 52.0683 550.25 50C550.25 47.9317 549.843 45.8836 549.051 43.9727C548.26 42.0619 547.099 40.3256 545.637 38.8631C544.174 37.4005 542.438 36.2404 540.527 35.4489C538.616 34.6574 536.568 34.25 534.5 34.25C530.323 34.25 526.317 35.9094 523.363 38.8631C520.409 41.8168 518.75 45.8228 518.75 50C518.75 54.1772 520.409 58.1832 523.363 61.1369C526.317 64.0906 530.323 65.75 534.5 65.75ZM534.094 56.37L542.844 45.87L540.156 43.63L532.631 52.6583L528.737 48.7628L526.263 51.2372L531.513 56.4872L532.867 57.8418L534.094 56.37Z" fill="#50D0FF"/>
</g>
<defs>
<filter id="filter0_d_2087_10" x="-128.8" y="-163.8" width="422.6" height="423.6" filterUnits="userSpaceOnUse" color-interpolation-filters="sRGB">
<feFlood flood-opacity="0" result="BackgroundImageFix"/>
<feColorMatrix in="SourceAlpha" type="matrix" values="0 0 0 0 0 0 0 0 0 0 0 0 0 0 0 0 0 0 127 0" result="hardAlpha"/>
<feOffset dy="4"/>
<feGaussianBlur stdDeviation="4.8"/>
<feComposite in2="hardAlpha" operator="out"/>
<feColorMatrix type="matrix" values="0 0 0 0 0 0 0 0 0 0 0 0 0 0 0 0 0 0 1 0"/>
<feBlend mode="normal" in2="BackgroundImageFix" result="effect1_dropShadow_2087_10"/>
<feBlend mode="normal" in="SourceGraphic" in2="effect1_dropShadow_2087_10" result="shape"/>
</filter>
<filter id="filter1_d_2087_10" x="97.2" y="-163.8" width="422.6" height="423.6" filterUnits="userSpaceOnUse" color-interpolation-filters="sRGB">
<feFlood flood-opacity="0" result="BackgroundImageFix"/>
<feColorMatrix in="SourceAlpha" type="matrix" values="0 0 0 0 0 0 0 0 0 0 0 0 0 0 0 0 0 0 127 0" result="hardAlpha"/>
<feOffset dy="4"/>
<feGaussianBlur stdDeviation="4.8"/>
<feComposite in2="hardAlpha" operator="out"/>
<feColorMatrix type="matrix" values="0 0 0 0 0 0 0 0 0 0 0 0 0 0 0 0 0 0 1 0"/>
<feBlend mode="normal" in2="BackgroundImageFix" result="effect1_dropShadow_2087_10"/>
<feBlend mode="normal" in="SourceGraphic" in2="effect1_dropShadow_2087_10" result="shape"/>
</filter>
<filter id="filter2_d_2087_10" x="323.2" y="-161.8" width="422.6" height="423.6" filterUnits="userSpaceOnUse" color-interpolation-filters="sRGB">
<feFlood flood-opacity="0" result="BackgroundImageFix"/>
<feColorMatrix in="SourceAlpha" type="matrix" values="0 0 0 0 0 0 0 0 0 0 0 0 0 0 0 0 0 0 127 0" result="hardAlpha"/>
<feOffset dy="4"/>
<feGaussianBlur stdDeviation="4.8"/>
<feComposite in2="hardAlpha" operator="out"/>
<feColorMatrix type="matrix" values="0 0 0 0 0 0 0 0 0 0 0 0 0 0 0 0 0 0 1 0"/>
<feBlend mode="normal" in2="BackgroundImageFix" result="effect1_dropShadow_2087_10"/>
<feBlend mode="normal" in="SourceGraphic" in2="effect1_dropShadow_2087_10" result="shape"/>
</filter>
<linearGradient id="paint0_linear_2087_10" x1="76.3781" y1="29.6648" x2="279.939" y2="39.2857" gradientUnits="userSpaceOnUse">
<stop/>
<stop offset="1" stop-color="#666666"/>
</linearGradient>
<linearGradient id="paint1_linear_2087_10" x1="314.378" y1="54.3176" x2="517.939" y2="44.6967" gradientUnits="userSpaceOnUse">
<stop/>
<stop offset="1" stop-color="#666666"/>
</linearGradient>
<linearGradient id="paint2_linear_2087_10" x1="-14.3979" y1="-38.2143" x2="103.51" y2="110.472" gradientUnits="userSpaceOnUse">
<stop stop-color="#8C708B" stop-opacity="0.84"/>
<stop offset="1"/>
</linearGradient>
<linearGradient id="paint3_linear_2087_10" x1="211.602" y1="-38.2143" x2="329.51" y2="110.472" gradientUnits="userSpaceOnUse">
<stop stop-color="#8C708B" stop-opacity="0.84"/>
<stop offset="1"/>
</linearGradient>
<linearGradient id="paint4_linear_2087_10" x1="437.602" y1="-36.2143" x2="555.51" y2="112.472" gradientUnits="userSpaceOnUse">
<stop stop-color="#8C708B" stop-opacity="0.84"/>
<stop offset="1"/>
</linearGradient>
<clipPath id="clip0_2087_10">
<rect width="28" height="28" fill="white" transform="translate(65 34)"/>
</clipPath>
</defs>
</svg>
