<svg width="18" height="18" viewBox="0 0 18 18" fill="none" xmlns="http://www.w3.org/2000/svg">
<path d="M2.54106 11.3413C1.94761 10.5705 1.65088 10.1844 1.65088 9.04004C1.65088 7.89503 1.94761 7.51033 2.54106 6.73884C3.72588 5.20004 5.7129 3.45459 8.6327 3.45459C11.5525 3.45459 13.5395 5.20004 14.7243 6.73884C15.3178 7.51103 15.6145 7.89572 15.6145 9.04004C15.6145 10.1851 15.3178 10.5698 14.7243 11.3413C13.5395 12.88 11.5525 14.6255 8.6327 14.6255C5.7129 14.6255 3.72588 12.88 2.54106 11.3413Z" stroke="white" stroke-width="1.04727"/>
<path d="M10.7274 9.03986C10.7274 9.59537 10.5067 10.1281 10.1139 10.5209C9.72114 10.9137 9.18838 11.1344 8.63288 11.1344C8.07737 11.1344 7.54461 10.9137 7.15181 10.5209C6.759 10.1281 6.53833 9.59537 6.53833 9.03986C6.53833 8.48435 6.759 7.95159 7.15181 7.55879C7.54461 7.16599 8.07737 6.94531 8.63288 6.94531C9.18838 6.94531 9.72114 7.16599 10.1139 7.55879C10.5067 7.95159 10.7274 8.48435 10.7274 9.03986Z" stroke="white" stroke-width="1.04727"/>
</svg>
