<svg width="16" height="69" viewBox="0 0 16 69" fill="none" xmlns="http://www.w3.org/2000/svg">
<path d="M7.29289 68.7071C7.68342 69.0976 8.31658 69.0976 8.70711 68.7071L15.0711 62.3431C15.4616 61.9526 15.4616 61.3195 15.0711 60.9289C14.6805 60.5384 14.0474 60.5384 13.6569 60.9289L8 66.5858L2.34315 60.9289C1.95262 60.5384 1.31946 60.5384 0.928932 60.9289C0.538408 61.3195 0.538408 61.9526 0.928932 62.3431L7.29289 68.7071ZM8 0L7 0V1.88889H8H9V0L8 0ZM8 5.66667H7L7 9.44444H8H9V5.66667H8ZM8 13.2222H7V17H8H9L9 13.2222H8ZM8 20.7778H7L7 24.5556H8H9V20.7778H8ZM8 28.3333H7V32.1111H8H9V28.3333H8ZM8 35.8889H7L7 39.6667H8H9V35.8889H8ZM8 43.4445H7V47.2222H8H9V43.4445H8ZM8 51H7V54.7778H8H9V51H8ZM8 58.5556H7V62.3333H8H9V58.5556H8ZM8 66.1111H7L7 68H8H9V66.1111H8ZM7.29289 68.7071C7.68342 69.0976 8.31658 69.0976 8.70711 68.7071L15.0711 62.3431C15.4616 61.9526 15.4616 61.3195 15.0711 60.9289C14.6805 60.5384 14.0474 60.5384 13.6569 60.9289L8 66.5858L2.34315 60.9289C1.95262 60.5384 1.31946 60.5384 0.928932 60.9289C0.538408 61.3195 0.538408 61.9526 0.928932 62.3431L7.29289 68.7071ZM8 0L7 0V1.88889H8H9V0L8 0ZM8 5.66667H7L7 9.44444H8H9V5.66667H8ZM8 13.2222H7V17H8H9L9 13.2222H8ZM8 20.7778H7L7 24.5556H8H9V20.7778H8ZM8 28.3333H7V32.1111H8H9V28.3333H8ZM8 35.8889H7L7 39.6667H8H9V35.8889H8ZM8 43.4445H7V47.2222H8H9V43.4445H8ZM8 51H7V54.7778H8H9V51H8ZM8 58.5556H7V62.3333H8H9V58.5556H8ZM8 66.1111H7L7 68H8H9V66.1111H8Z" fill="white"/>
</svg>
